<svg xmlns="http://www.w3.org/2000/svg" width="1180" height="860" viewBox="0 0 1180 860" font-family="Nimbus Sans, Liberation Sans, Helvetica, Arial, sans-serif">
<defs>
  <marker id="a" markerUnits="userSpaceOnUse" viewBox="0 0 10 10" refX="9.1" refY="5" markerWidth="11" markerHeight="11" orient="auto-start-reverse"><path d="M0.6,1.6 L9.6,5 L0.6,8.4 z" fill="#546060"/></marker>
  <marker id="ar" markerUnits="userSpaceOnUse" viewBox="0 0 10 10" refX="9.1" refY="5" markerWidth="11" markerHeight="11" orient="auto-start-reverse"><path d="M0.6,1.6 L9.6,5 L0.6,8.4 z" fill="#A83024"/></marker>
  <marker id="am" markerUnits="userSpaceOnUse" viewBox="0 0 10 10" refX="0.9" refY="5" markerWidth="11" markerHeight="11" orient="auto"><path d="M9.4,1.6 L0.4,5 L9.4,8.4 z" fill="#A83024"/></marker>
  <marker id="e0" markerUnits="userSpaceOnUse" viewBox="0 0 10 10" refX="9.1" refY="5" markerWidth="11" markerHeight="11" orient="auto-start-reverse"><path d="M0.6,1.6 L9.6,5 L0.6,8.4 z" fill="#546060"/></marker>
  <marker id="e1" markerUnits="userSpaceOnUse" viewBox="0 0 10 10" refX="9.1" refY="5" markerWidth="11" markerHeight="11" orient="auto-start-reverse"><path d="M0.6,1.6 L9.6,5 L0.6,8.4 z" fill="#A83024"/></marker>
  <marker id="s2" markerUnits="userSpaceOnUse" viewBox="0 0 10 10" refX="0.9" refY="5" markerWidth="11" markerHeight="11" orient="auto"><path d="M9.4,1.6 L0.4,5 L9.4,8.4 z" fill="#A83024"/></marker>
</defs>
<rect width="1180" height="860" fill="#FFFFFF"/>
<text x="590.0" y="44" font-size="21" text-anchor="middle" fill="#14231C" font-weight="bold">Round 9: every arm beside the control it is defined against</text>
<text x="590.0" y="68" font-size="13" text-anchor="middle" fill="#6C786C">bar height = CEM planning success rate;  colour = whether the arm's action channel survived;  delta is PAIRED on shared seeds</text>
<text x="590.0" y="88" font-size="11.5" text-anchor="middle" fill="#6C786C">pushT's registered baseline over all 13 archived seeds is 0.357; the line below is the mean over the three seeds this round paired against.</text>
<text x="1096" y="136" font-size="15" text-anchor="end" fill="#14231C" font-weight="bold">WALL</text>
<rect x="96" y="148" width="1000" height="218" fill="#FFFFFF" stroke="#AAB4AF" stroke-width="1"/>
<line x1="96" y1="366.0" x2="1096" y2="366.0" stroke="#E8ECEA" stroke-width="1"/>
<text x="88" y="370.0" font-size="12" text-anchor="end" fill="#6C786C">0.0</text>
<line x1="96" y1="322.4" x2="1096" y2="322.4" stroke="#E8ECEA" stroke-width="1"/>
<text x="88" y="326.4" font-size="12" text-anchor="end" fill="#6C786C">0.2</text>
<line x1="96" y1="278.8" x2="1096" y2="278.8" stroke="#E8ECEA" stroke-width="1"/>
<text x="88" y="282.8" font-size="12" text-anchor="end" fill="#6C786C">0.3</text>
<line x1="96" y1="235.2" x2="1096" y2="235.2" stroke="#E8ECEA" stroke-width="1"/>
<text x="88" y="239.2" font-size="12" text-anchor="end" fill="#6C786C">0.5</text>
<line x1="96" y1="191.6" x2="1096" y2="191.6" stroke="#E8ECEA" stroke-width="1"/>
<text x="88" y="195.60000000000002" font-size="12" text-anchor="end" fill="#6C786C">0.6</text>
<line x1="96" y1="148.0" x2="1096" y2="148.0" stroke="#E8ECEA" stroke-width="1"/>
<text x="88" y="152.0" font-size="12" text-anchor="end" fill="#6C786C">0.8</text>
<text x="96" y="138" font-size="12.5" text-anchor="start" fill="#6C786C">success rate</text>
<line x1="96" y1="182.5" x2="1096" y2="182.5" stroke="#2E7D6F" stroke-width="2" stroke-dasharray="7,4"/>
<text x="112" y="172.51666666666665" font-size="12" text-anchor="start" fill="#2E7D6F" font-weight="bold">baseline 0.673  (seeds 3-5, n=3)</text>
<text x="159" y="278" font-size="11.5" text-anchor="middle" fill="#6C786C">no data</text>
<rect x="326.0" y="349.6" width="58.0" height="16.3" rx="3" fill="#A83024" opacity="0.88"/>
<text x="355.0" y="342.65" font-size="12" text-anchor="middle" fill="#14231C" font-weight="bold">0.060</text>
<text x="355.0" y="382" font-size="12" text-anchor="middle" fill="#14231C">P4</text>
<text x="355.0" y="397" font-size="11" text-anchor="middle" fill="#6C786C">scan+state</text>
<rect x="392.0" y="360.6" width="58.0" height="5.4" rx="3" fill="#AAB4AF" opacity="0.88"/>
<text x="421.0" y="353.55" font-size="12" text-anchor="middle" fill="#14231C" font-weight="bold">0.020</text>
<text x="421.0" y="382" font-size="12" text-anchor="middle" fill="#14231C">ctrl</text>
<text x="388" y="410" font-size="13" text-anchor="middle" fill="#6C786C" font-weight="bold">+0.040</text>
<text x="388" y="425" font-size="10.5" text-anchor="middle" fill="#6C786C">n=3</text>
<rect x="522.0" y="353.3" width="58.0" height="12.7" rx="3" fill="#18483C" opacity="0.88"/>
<text x="551.0" y="346.28333333333336" font-size="12" text-anchor="middle" fill="#14231C" font-weight="bold">0.047</text>
<text x="551.0" y="382" font-size="12" text-anchor="middle" fill="#14231C">P5</text>
<text x="551.0" y="397" font-size="11" text-anchor="middle" fill="#6C786C">consistency</text>
<rect x="588.0" y="352.4" width="58.0" height="13.6" rx="3" fill="#AAB4AF" opacity="0.88"/>
<text x="617.0" y="345.375" font-size="12" text-anchor="middle" fill="#14231C" font-weight="bold">0.050</text>
<text x="617.0" y="382" font-size="12" text-anchor="middle" fill="#14231C">ctrl</text>
<text x="584" y="410" font-size="13" text-anchor="middle" fill="#14231C" font-weight="bold">+0.010</text>
<text x="584" y="425" font-size="10.5" text-anchor="middle" fill="#6C786C">n=2</text>
<rect x="718.0" y="322.4" width="58.0" height="43.6" rx="3" fill="#18483C" opacity="0.88"/>
<text x="747.0" y="315.4" font-size="12" text-anchor="middle" fill="#14231C" font-weight="bold">0.160</text>
<text x="747.0" y="382" font-size="12" text-anchor="middle" fill="#14231C">P6</text>
<text x="747.0" y="397" font-size="11" text-anchor="middle" fill="#6C786C">velocity</text>
<rect x="784.0" y="195.2" width="58.0" height="170.8" rx="3" fill="#AAB4AF" opacity="0.88"/>
<text x="813.0" y="188.23333333333335" font-size="12" text-anchor="middle" fill="#14231C" font-weight="bold">0.627</text>
<text x="813.0" y="382" font-size="12" text-anchor="middle" fill="#14231C">ctrl</text>
<text x="780" y="410" font-size="13" text-anchor="middle" fill="#14231C" font-weight="bold">-0.467</text>
<text x="780" y="425" font-size="10.5" text-anchor="middle" fill="#6C786C">n=3</text>
<rect x="914.0" y="202.5" width="58.0" height="163.5" rx="3" fill="#18483C" opacity="0.88"/>
<text x="943.0" y="195.50000000000003" font-size="12" text-anchor="middle" fill="#14231C" font-weight="bold">0.600</text>
<text x="943.0" y="382" font-size="12" text-anchor="middle" fill="#14231C">P7</text>
<text x="943.0" y="397" font-size="11" text-anchor="middle" fill="#6C786C">contrastive</text>
<rect x="980.0" y="182.5" width="58.0" height="183.5" rx="3" fill="#AAB4AF" opacity="0.88"/>
<text x="1009.0" y="175.51666666666665" font-size="12" text-anchor="middle" fill="#14231C" font-weight="bold">0.673</text>
<text x="1009.0" y="382" font-size="12" text-anchor="middle" fill="#14231C">ctrl</text>
<text x="976" y="410" font-size="13" text-anchor="middle" fill="#14231C" font-weight="bold">-0.073</text>
<text x="976" y="425" font-size="10.5" text-anchor="middle" fill="#6C786C">n=3</text>
<text x="96" y="410" font-size="12" text-anchor="start" fill="#6C786C">vs ctrl:</text>
<text x="1096" y="476" font-size="15" text-anchor="end" fill="#14231C" font-weight="bold">PUSHT</text>
<rect x="96" y="488" width="1000" height="218" fill="#FFFFFF" stroke="#AAB4AF" stroke-width="1"/>
<line x1="96" y1="706.0" x2="1096" y2="706.0" stroke="#E8ECEA" stroke-width="1"/>
<text x="88" y="710.0" font-size="12" text-anchor="end" fill="#6C786C">0.0</text>
<line x1="96" y1="662.4" x2="1096" y2="662.4" stroke="#E8ECEA" stroke-width="1"/>
<text x="88" y="666.4" font-size="12" text-anchor="end" fill="#6C786C">0.1</text>
<line x1="96" y1="618.8" x2="1096" y2="618.8" stroke="#E8ECEA" stroke-width="1"/>
<text x="88" y="622.8" font-size="12" text-anchor="end" fill="#6C786C">0.2</text>
<line x1="96" y1="575.2" x2="1096" y2="575.2" stroke="#E8ECEA" stroke-width="1"/>
<text x="88" y="579.2" font-size="12" text-anchor="end" fill="#6C786C">0.3</text>
<line x1="96" y1="531.6" x2="1096" y2="531.6" stroke="#E8ECEA" stroke-width="1"/>
<text x="88" y="535.6" font-size="12" text-anchor="end" fill="#6C786C">0.4</text>
<line x1="96" y1="488.0" x2="1096" y2="488.0" stroke="#E8ECEA" stroke-width="1"/>
<text x="88" y="492.0" font-size="12" text-anchor="end" fill="#6C786C">0.5</text>
<text x="96" y="478" font-size="12.5" text-anchor="start" fill="#6C786C">success rate</text>
<line x1="96" y1="520.0" x2="1096" y2="520.0" stroke="#2E7D6F" stroke-width="2" stroke-dasharray="7,4"/>
<text x="112" y="509.97333333333336" font-size="12" text-anchor="start" fill="#2E7D6F" font-weight="bold">baseline 0.427  (seeds 3-5, n=3)</text>
<rect x="130.0" y="703.1" width="58.0" height="2.9" rx="3" fill="#A83024" opacity="0.88"/>
<text x="159.0" y="696.0933333333334" font-size="12" text-anchor="middle" fill="#14231C" font-weight="bold">0.007</text>
<text x="159.0" y="722" font-size="12" text-anchor="middle" fill="#14231C">P3</text>
<text x="159.0" y="737" font-size="11" text-anchor="middle" fill="#6C786C">scan</text>
<rect x="196.0" y="703.1" width="58.0" height="2.9" rx="3" fill="#AAB4AF" opacity="0.88"/>
<text x="225.0" y="696.0933333333334" font-size="12" text-anchor="middle" fill="#14231C" font-weight="bold">0.007</text>
<text x="225.0" y="722" font-size="12" text-anchor="middle" fill="#14231C">ctrl</text>
<text x="192" y="750" font-size="13" text-anchor="middle" fill="#6C786C" font-weight="bold">+0.000</text>
<text x="192" y="765" font-size="10.5" text-anchor="middle" fill="#6C786C">n=3</text>
<rect x="392.0" y="701.6" width="58.0" height="4.4" rx="3" fill="#AAB4AF" opacity="0.88"/>
<text x="421.0" y="694.64" font-size="12" text-anchor="middle" fill="#14231C" font-weight="bold">0.010</text>
<text x="421.0" y="722" font-size="12" text-anchor="middle" fill="#14231C">ctrl</text>
<text x="355" y="618" font-size="11.5" text-anchor="middle" fill="#6C786C">no data</text>
<rect x="522.0" y="691.5" width="58.0" height="14.5" rx="3" fill="#A83024" opacity="0.88"/>
<text x="551.0" y="684.4666666666667" font-size="12" text-anchor="middle" fill="#14231C" font-weight="bold">0.033</text>
<text x="551.0" y="722" font-size="12" text-anchor="middle" fill="#14231C">P5</text>
<text x="551.0" y="737" font-size="11" text-anchor="middle" fill="#6C786C">consistency</text>
<rect x="588.0" y="624.6" width="58.0" height="81.4" rx="3" fill="#AAB4AF" opacity="0.88"/>
<text x="617.0" y="617.6133333333333" font-size="12" text-anchor="middle" fill="#14231C" font-weight="bold">0.187</text>
<text x="617.0" y="722" font-size="12" text-anchor="middle" fill="#14231C">ctrl</text>
<text x="584" y="750" font-size="13" text-anchor="middle" fill="#6C786C" font-weight="bold">-0.153</text>
<text x="584" y="765" font-size="10.5" text-anchor="middle" fill="#6C786C">n=3</text>
<rect x="718.0" y="700.2" width="58.0" height="5.8" rx="3" fill="#18483C" opacity="0.88"/>
<text x="747.0" y="693.1866666666666" font-size="12" text-anchor="middle" fill="#14231C" font-weight="bold">0.013</text>
<text x="747.0" y="722" font-size="12" text-anchor="middle" fill="#14231C">P6</text>
<text x="747.0" y="737" font-size="11" text-anchor="middle" fill="#6C786C">velocity</text>
<rect x="784.0" y="659.5" width="58.0" height="46.5" rx="3" fill="#AAB4AF" opacity="0.88"/>
<text x="813.0" y="652.4933333333333" font-size="12" text-anchor="middle" fill="#14231C" font-weight="bold">0.107</text>
<text x="813.0" y="722" font-size="12" text-anchor="middle" fill="#14231C">ctrl</text>
<text x="780" y="750" font-size="13" text-anchor="middle" fill="#14231C" font-weight="bold">-0.093</text>
<text x="780" y="765" font-size="10.5" text-anchor="middle" fill="#6C786C">n=3</text>
<rect x="914.0" y="508.3" width="58.0" height="197.7" rx="3" fill="#18483C" opacity="0.88"/>
<text x="943.0" y="501.3466666666667" font-size="12" text-anchor="middle" fill="#14231C" font-weight="bold">0.453</text>
<text x="943.0" y="722" font-size="12" text-anchor="middle" fill="#14231C">P7</text>
<text x="943.0" y="737" font-size="11" text-anchor="middle" fill="#6C786C">contrastive</text>
<rect x="980.0" y="566.5" width="58.0" height="139.5" rx="3" fill="#AAB4AF" opacity="0.88"/>
<text x="1009.0" y="559.48" font-size="12" text-anchor="middle" fill="#14231C" font-weight="bold">0.320</text>
<text x="1009.0" y="722" font-size="12" text-anchor="middle" fill="#14231C">ctrl</text>
<text x="976" y="750" font-size="13" text-anchor="middle" fill="#14231C" font-weight="bold">+0.133</text>
<text x="976" y="765" font-size="10.5" text-anchor="middle" fill="#6C786C">n=3</text>
<text x="96" y="750" font-size="12" text-anchor="start" fill="#6C786C">vs ctrl:</text>
<rect x="96" y="791" width="13" height="13" rx="2" fill="#18483C"/>
<text x="116" y="802" font-size="12.5" text-anchor="start" fill="#14231C">action channel intact -> the number is evidence</text>
<rect x="96" y="811" width="13" height="13" rx="2" fill="#A83024"/>
<text x="116" y="822" font-size="12.5" text-anchor="start" fill="#14231C">action channel destroyed -> NOT evidence, arm untestable</text>
<rect x="96" y="831" width="13" height="13" rx="2" fill="#AAB4AF"/>
<text x="116" y="842" font-size="12.5" text-anchor="start" fill="#14231C">the arm's own matched control</text>
</svg>
