<svg xmlns="http://www.w3.org/2000/svg" width="940" height="1414" viewBox="0 0 940 1414" font-family="Georgia, 'Times New Roman', serif">
<defs>
  <marker id="a" viewBox="0 0 10 10" refX="9" refY="5" markerWidth="7" markerHeight="7" orient="auto-start-reverse"><path d="M0,0 L10,5 L0,10 z" fill="#4A6274"/></marker>
  <marker id="ar" viewBox="0 0 10 10" refX="9" refY="5" markerWidth="6" markerHeight="6" orient="auto-start-reverse"><path d="M0,0 L10,5 L0,10 z" fill="#9E3B3B"/></marker>
  <marker id="am" viewBox="0 0 10 10" refX="1" refY="5" markerWidth="6" markerHeight="6" orient="auto"><path d="M10,0 L0,5 L10,10 z" fill="#9E3B3B"/></marker>
</defs>
<rect width="940" height="1414" fill="white"/>
<circle cx="120" cy="742" r="34" fill="#FAD9BE" stroke="#1A1A1A" stroke-width="1.6"/>
<text x="120" y="749" font-size="20" text-anchor="middle" fill="#1A1A1A" font-style="" font-weight="normal">o<tspan font-size="13" dy="6">t</tspan></text>
<circle cx="812" cy="742" r="34" fill="#FAD9BE" stroke="#1A1A1A" stroke-width="1.6"/>
<text x="812" y="749" font-size="20" text-anchor="middle" fill="#1A1A1A" font-style="" font-weight="normal">o<tspan font-size="13" dy="6">t+1</tspan></text>
<path d="M120,706 L120,646" stroke="#4A6274" stroke-width="2.0" fill="none" marker-end="url(#a)"/>
<path d="M812,706 L812,646" stroke="#4A6274" stroke-width="2.0" fill="none" marker-end="url(#a)"/>
<path d="M64,644 L64,576.0 A56.0,56.0 0 0 1 176,576.0 L176,644 Z" fill="#A9D5D1" stroke="#1A1A1A" stroke-width="2.4"/>
<text x="120.0" y="618" font-size="21" text-anchor="middle" fill="#1A1A1A" font-style="" font-weight="normal">Enc <tspan font-style='italic'>f</tspan></text>
<path d="M756,644 L756,576.0 A56.0,56.0 0 0 1 868,576.0 L868,644 Z" fill="#A9D5D1" stroke="#1A1A1A" stroke-width="2.4"/>
<text x="812.0" y="618" font-size="21" text-anchor="middle" fill="#1A1A1A" font-style="" font-weight="normal">Enc <tspan font-style='italic'>f</tspan></text>
<path d="M120,520 L120,470" stroke="#4A6274" stroke-width="2.0" fill="none" marker-end="url(#a)"/>
<path d="M812,520 L812,470" stroke="#4A6274" stroke-width="2.0" fill="none" marker-end="url(#a)"/>
<rect x="78" y="420" width="84" height="44" rx="4" fill="#F9F2C4" stroke="#1A1A1A" stroke-width="1.4"/>
<text x="120.0" y="448.0" font-size="17" text-anchor="middle" fill="#1A1A1A" font-style="" font-weight="normal">ReLU</text>
<rect x="770" y="420" width="84" height="44" rx="4" fill="#F9F2C4" stroke="#1A1A1A" stroke-width="1.4"/>
<text x="812.0" y="448.0" font-size="17" text-anchor="middle" fill="#1A1A1A" font-style="" font-weight="normal">ReLU</text>
<path d="M120,420 L120,352" stroke="#4A6274" stroke-width="2.0" fill="none" marker-end="url(#a)"/>
<path d="M812,420 L812,352" stroke="#4A6274" stroke-width="2.0" fill="none" marker-end="url(#a)"/>
<rect x="109" y="190" width="22" height="22" fill="#FFFFFF" stroke="#1A1A1A" stroke-width="1.3"/>
<rect x="109" y="215" width="22" height="22" fill="#40566E" stroke="#1A1A1A" stroke-width="1.3"/>
<rect x="109" y="240" width="22" height="22" fill="#40566E" stroke="#1A1A1A" stroke-width="1.3"/>
<rect x="109" y="265" width="22" height="22" fill="#FFFFFF" stroke="#1A1A1A" stroke-width="1.3"/>
<rect x="109" y="290" width="22" height="22" fill="#40566E" stroke="#1A1A1A" stroke-width="1.3"/>
<rect x="109" y="315" width="22" height="22" fill="#FFFFFF" stroke="#1A1A1A" stroke-width="1.3"/>
<text x="120.0" y="178" font-size="19" text-anchor="middle" fill="#1A1A1A" font-style="" font-weight="normal">z<tspan font-size="13" dy="6">t</tspan></text>
<rect x="801" y="190" width="22" height="22" fill="#FFFFFF" stroke="#1A1A1A" stroke-width="1.3"/>
<rect x="801" y="215" width="22" height="22" fill="#40566E" stroke="#1A1A1A" stroke-width="1.3"/>
<rect x="801" y="240" width="22" height="22" fill="#40566E" stroke="#1A1A1A" stroke-width="1.3"/>
<rect x="801" y="265" width="22" height="22" fill="#40566E" stroke="#1A1A1A" stroke-width="1.3"/>
<rect x="801" y="290" width="22" height="22" fill="#FFFFFF" stroke="#1A1A1A" stroke-width="1.3"/>
<rect x="801" y="315" width="22" height="22" fill="#FFFFFF" stroke="#1A1A1A" stroke-width="1.3"/>
<text x="812.0" y="178" font-size="19" text-anchor="middle" fill="#1A1A1A" font-style="" font-weight="normal">z<tspan font-size="13" dy="6">t+1</tspan></text>
<rect x="701" y="190" width="22" height="22" fill="#FFFFFF" stroke="#1A1A1A" stroke-width="1.3"/>
<rect x="701" y="215" width="22" height="22" fill="#40566E" stroke="#1A1A1A" stroke-width="1.3"/>
<rect x="701" y="240" width="22" height="22" fill="#FFFFFF" stroke="#1A1A1A" stroke-width="1.3"/>
<rect x="701" y="265" width="22" height="22" fill="#40566E" stroke="#1A1A1A" stroke-width="1.3"/>
<rect x="701" y="290" width="22" height="22" fill="#40566E" stroke="#1A1A1A" stroke-width="1.3"/>
<rect x="701" y="315" width="22" height="22" fill="#FFFFFF" stroke="#1A1A1A" stroke-width="1.3"/>
<text x="712.0" y="178" font-size="19" text-anchor="middle" fill="#1A1A1A" font-style="" font-weight="normal">z<tspan font-size="13" dy="6">t+1</tspan></text>
<path d="M700.5,160 L705.0,154 L709.5,160" stroke="#1A1A1A" stroke-width="1.7" fill="none" stroke-linecap="round"/>
<path d="M737,262 L795,262" stroke="#9E3B3B" stroke-width="2" marker-end="url(#ar)" marker-start="url(#am)"/>
<text x="766" y="240" font-size="16" text-anchor="middle" fill="#9E3B3B" font-style="" font-weight="normal">MSE (min)</text>
<path d="M232,196 L356.0,196 A66.0,66.0 0 0 1 356.0,328 L232,328 Z" fill="#E2CDE9" stroke="#1A1A1A" stroke-width="2.4"/>
<text x="321.0" y="263.0" font-size="21" text-anchor="middle" fill="#1A1A1A" font-style="" font-weight="normal">Pred</text>
<text x="321.0" y="284.0" font-size="13" text-anchor="middle" fill="#444" font-style="" font-weight="normal">g</text>
<circle cx="318" cy="430" r="38" fill="#FAD9BE" stroke="#1A1A1A" stroke-width="1.6"/>
<text x="318" y="437" font-size="20" text-anchor="middle" fill="#1A1A1A" font-style="" font-weight="normal">a<tspan font-size="13" dy="6">t</tspan></text>
<path d="M318,392 L318,332" stroke="#4A6274" stroke-width="2.0" fill="none" marker-end="url(#a)"/>
<path d="M146,262 L226,262" stroke="#4A6274" stroke-width="2.0" fill="none" marker-end="url(#a)"/>
<text x="186" y="248" font-size="16" text-anchor="middle" fill="#1A1A1A" font-style="" font-weight="normal">z<tspan font-size="12" dy="6">t</tspan></text>
<path d="M424,262 L697,262" stroke="#4A6274" stroke-width="2.0" fill="none" marker-end="url(#a)"/>
<rect x="430" y="556" width="160" height="52" rx="4" fill="#FFFFFF" stroke="#55707F" stroke-width="1.6"/>
<text x="510.0" y="588.0" font-size="17" text-anchor="middle" fill="#1A1A1A" font-style="" font-weight="normal">RDMReg</text>
<path d="M162,442 L206,442 L206,582 L426,582" stroke="#4A6274" stroke-width="2.0" fill="none" marker-end="url(#a)"/>
<path d="M770,442 L726,442 L726,582 L594,582" stroke="#4A6274" stroke-width="2.0" fill="none" marker-end="url(#a)"/>
<text x="466" y="872" font-size="21" text-anchor="middle" fill="#1A1A1A" font-style="" font-weight="normal">(M2) the success metric -- what it scores now, and what it should score</text>
<path d="M880,898 L880,742 L852,742" stroke="#b3261e" stroke-width="2.0" fill="none" marker-end="url(#a)" stroke-dasharray="6,4"/>
<text x="760" y="700" font-size="14" text-anchor="end" fill="#b3261e" font-style="" font-weight="normal">success is scored on the STATE behind this frame</text>
<rect x="34" y="898" width="872" height="488" rx="10" fill="#e6e6e3" fill-opacity="0.45" stroke="#3d3d3a" stroke-width="2.4"/>
<text x="54" y="930" font-size="18" text-anchor="start" fill="#3d3d3a" font-style="" font-weight="bold">module:  the criterion, side by side -- same episode, two verdicts</text>
<path d="M52,942 L888,942" stroke="#3d3d3a" stroke-width="1.2" stroke-opacity="0.5"/>
<rect x="52" y="950" width="408" height="298" rx="8" fill="#FFFFFF" stroke="#b3261e" stroke-width="2.2"/>
<text x="256.0" y="980" font-size="18" text-anchor="middle" fill="#b3261e" font-style="" font-weight="bold">CURRENT</text>
<text x="256.0" y="1000" font-size="11.5" text-anchor="middle" fill="#6b6b66" font-style="italic" font-weight="normal">env/pusht/pusht_wrapper.py:62</text>
<rect x="478" y="950" width="408" height="298" rx="8" fill="#FFFFFF" stroke="#006e00" stroke-width="2.2"/>
<text x="682.0" y="980" font-size="18" text-anchor="middle" fill="#006e00" font-style="" font-weight="bold">REPAIRED</text>
<text x="682.0" y="1000" font-size="11.5" text-anchor="middle" fill="#6b6b66" font-style="italic" font-weight="normal">block only, terminal</text>
<rect x="68" y="1010" width="72" height="40" rx="4" fill="#b3261e" fill-opacity="0.85" stroke="#b3261e" stroke-width="2.2" stroke-opacity="1"/>
<text x="104.0" y="1035.0" font-size="12.5" text-anchor="middle" fill="#FFFFFF" font-style="" font-weight="normal">agent x</text>
<rect x="144" y="1010" width="72" height="40" rx="4" fill="#b3261e" fill-opacity="0.85" stroke="#b3261e" stroke-width="2.2" stroke-opacity="1"/>
<text x="180.0" y="1035.0" font-size="12.5" text-anchor="middle" fill="#FFFFFF" font-style="" font-weight="normal">agent y</text>
<rect x="220" y="1010" width="72" height="40" rx="4" fill="#FFFFFF" fill-opacity="1" stroke="#b3261e" stroke-width="2.2" stroke-opacity="1"/>
<text x="256.0" y="1035.0" font-size="12.5" text-anchor="middle" fill="#1A1A1A" font-style="" font-weight="normal">T x</text>
<rect x="296" y="1010" width="72" height="40" rx="4" fill="#FFFFFF" fill-opacity="1" stroke="#b3261e" stroke-width="2.2" stroke-opacity="1"/>
<text x="332.0" y="1035.0" font-size="12.5" text-anchor="middle" fill="#1A1A1A" font-style="" font-weight="normal">T y</text>
<rect x="372" y="1010" width="72" height="40" rx="4" fill="#FFFFFF" fill-opacity="1" stroke="#b9b9b4" stroke-width="1.1" stroke-opacity="0.55"/>
<text x="408.0" y="1035.0" font-size="12.5" text-anchor="middle" fill="#6b6b66" font-style="" font-weight="normal">T theta</text>
<path d="M68,1050 L68,1058 L368,1058 L368,1050" stroke="#b3261e" stroke-width="1.8" fill="none"/>
<text x="218.0" y="1076" font-size="14" text-anchor="middle" fill="#b3261e" font-style="" font-weight="normal">goal[0:4]  -  cur[0:4]</text>
<rect x="68" y="1088" width="184" height="40" rx="5" fill="#FFFFFF" stroke="#b3261e" stroke-width="2"/>
<text x="160.0" y="1114.0" font-size="15" text-anchor="middle" fill="#1A1A1A" font-style="" font-weight="normal">pos_diff  &lt;  20</text>
<rect x="260" y="1088" width="184" height="40" rx="5" fill="#FFFFFF" stroke="#b3261e" stroke-width="2"/>
<text x="352.0" y="1114.0" font-size="15" text-anchor="middle" fill="#1A1A1A" font-style="" font-weight="normal">angle_diff  &lt;  pi/9</text>
<rect x="176" y="1139" width="160" height="38" rx="19" fill="#FFFFFF" stroke="#b3261e" stroke-width="2"/>
<text x="256" y="1164" font-size="16" text-anchor="middle" fill="#1A1A1A" font-style="" font-weight="normal">success at step t</text>
<path d="M160,1128 L214,1142" stroke="#b3261e" stroke-width="2.0" fill="none" marker-end="url(#a)"/>
<path d="M352,1128 L298,1142" stroke="#b3261e" stroke-width="2.0" fill="none" marker-end="url(#a)"/>
<path d="M256,1177 L256,1190" stroke="#b3261e" stroke-width="2.0" fill="none" marker-end="url(#a)"/>
<rect x="74" y="1194" width="22" height="22" rx="3" fill="#FFFFFF" fill-opacity="1" stroke="#b3261e" stroke-width="2.0" stroke-opacity="1"/>
<text x="85.0" y="1210.0" font-size="12" text-anchor="middle" fill="#1A1A1A" font-style="" font-weight="normal">0</text>
<rect x="99" y="1194" width="22" height="22" rx="3" fill="#FFFFFF" fill-opacity="1" stroke="#b3261e" stroke-width="2.0" stroke-opacity="1"/>
<text x="110.0" y="1210.0" font-size="12" text-anchor="middle" fill="#1A1A1A" font-style="" font-weight="normal">0</text>
<rect x="124" y="1194" width="22" height="22" rx="3" fill="#FFFFFF" fill-opacity="1" stroke="#b3261e" stroke-width="2.0" stroke-opacity="1"/>
<text x="135.0" y="1210.0" font-size="12" text-anchor="middle" fill="#1A1A1A" font-style="" font-weight="normal">0</text>
<rect x="149" y="1194" width="22" height="22" rx="3" fill="#b3261e" fill-opacity="0.9" stroke="#b3261e" stroke-width="2.0" stroke-opacity="1"/>
<text x="160.0" y="1210.0" font-size="12" text-anchor="middle" fill="#FFFFFF" font-style="" font-weight="normal">1</text>
<rect x="174" y="1194" width="22" height="22" rx="3" fill="#FFFFFF" fill-opacity="1" stroke="#b3261e" stroke-width="2.0" stroke-opacity="1"/>
<text x="185.0" y="1210.0" font-size="12" text-anchor="middle" fill="#1A1A1A" font-style="" font-weight="normal">0</text>
<rect x="199" y="1194" width="22" height="22" rx="3" fill="#FFFFFF" fill-opacity="1" stroke="#b3261e" stroke-width="2.0" stroke-opacity="1"/>
<text x="210.0" y="1210.0" font-size="12" text-anchor="middle" fill="#1A1A1A" font-style="" font-weight="normal">0</text>
<rect x="224" y="1194" width="22" height="22" rx="3" fill="#FFFFFF" fill-opacity="1" stroke="#b3261e" stroke-width="2.0" stroke-opacity="1"/>
<text x="235.0" y="1210.0" font-size="12" text-anchor="middle" fill="#1A1A1A" font-style="" font-weight="normal">0</text>
<rect x="249" y="1194" width="22" height="22" rx="3" fill="#FFFFFF" fill-opacity="1" stroke="#b3261e" stroke-width="2.0" stroke-opacity="1"/>
<text x="260.0" y="1210.0" font-size="12" text-anchor="middle" fill="#1A1A1A" font-style="" font-weight="normal">0</text>
<rect x="274" y="1194" width="22" height="22" rx="3" fill="#FFFFFF" fill-opacity="1" stroke="#b3261e" stroke-width="2.0" stroke-opacity="1"/>
<text x="285.0" y="1210.0" font-size="12" text-anchor="middle" fill="#1A1A1A" font-style="" font-weight="normal">0</text>
<rect x="299" y="1194" width="22" height="22" rx="3" fill="#FFFFFF" fill-opacity="1" stroke="#b3261e" stroke-width="2.0" stroke-opacity="1"/>
<text x="310.0" y="1210.0" font-size="12" text-anchor="middle" fill="#1A1A1A" font-style="" font-weight="normal">0</text>
<path d="M325,1205 L352,1205" stroke="#b3261e" stroke-width="2.0" fill="none" marker-end="url(#a)"/>
<rect x="356" y="1186" width="96" height="38" rx="19" fill="#f7dcd9" stroke="#b3261e" stroke-width="2"/>
<text x="404" y="1211" font-size="16" text-anchor="middle" fill="#1A1A1A" font-style="" font-weight="normal">OR  =  1</text>
<text x="256" y="1236" font-size="11.5" text-anchor="middle" fill="#6b6b66" font-style="italic" font-weight="normal">latched OR over 10 checkpoints  --  planning/mpc.py:110</text>
<rect x="494" y="1010" width="72" height="40" rx="4" fill="#FFFFFF" fill-opacity="1" stroke="#b9b9b4" stroke-width="1.1" stroke-opacity="0.55"/>
<text x="530.0" y="1035.0" font-size="12.5" text-anchor="middle" fill="#6b6b66" font-style="" font-weight="normal">agent x</text>
<rect x="570" y="1010" width="72" height="40" rx="4" fill="#FFFFFF" fill-opacity="1" stroke="#b9b9b4" stroke-width="1.1" stroke-opacity="0.55"/>
<text x="606.0" y="1035.0" font-size="12.5" text-anchor="middle" fill="#6b6b66" font-style="" font-weight="normal">agent y</text>
<rect x="646" y="1010" width="72" height="40" rx="4" fill="#FFFFFF" fill-opacity="1" stroke="#006e00" stroke-width="2.2" stroke-opacity="1"/>
<text x="682.0" y="1035.0" font-size="12.5" text-anchor="middle" fill="#1A1A1A" font-style="" font-weight="normal">T x</text>
<rect x="722" y="1010" width="72" height="40" rx="4" fill="#FFFFFF" fill-opacity="1" stroke="#006e00" stroke-width="2.2" stroke-opacity="1"/>
<text x="758.0" y="1035.0" font-size="12.5" text-anchor="middle" fill="#1A1A1A" font-style="" font-weight="normal">T y</text>
<rect x="798" y="1010" width="72" height="40" rx="4" fill="#FFFFFF" fill-opacity="1" stroke="#006e00" stroke-width="2.2" stroke-opacity="1"/>
<text x="834.0" y="1035.0" font-size="12.5" text-anchor="middle" fill="#1A1A1A" font-style="" font-weight="normal">T theta</text>
<path d="M646,1050 L646,1058 L870,1058 L870,1050" stroke="#006e00" stroke-width="1.8" fill="none"/>
<text x="758.0" y="1076" font-size="14" text-anchor="middle" fill="#006e00" font-style="" font-weight="normal">goal[2:5]  -  cur[2:5]</text>
<rect x="494" y="1088" width="184" height="40" rx="5" fill="#FFFFFF" stroke="#006e00" stroke-width="2"/>
<text x="586.0" y="1114.0" font-size="15" text-anchor="middle" fill="#1A1A1A" font-style="" font-weight="normal">block dist  &lt;  20</text>
<rect x="686" y="1088" width="184" height="40" rx="5" fill="#FFFFFF" stroke="#006e00" stroke-width="2"/>
<text x="778.0" y="1114.0" font-size="15" text-anchor="middle" fill="#1A1A1A" font-style="" font-weight="normal">angle_diff  &lt;  pi/9</text>
<rect x="602" y="1139" width="160" height="38" rx="19" fill="#FFFFFF" stroke="#006e00" stroke-width="2"/>
<text x="682" y="1164" font-size="16" text-anchor="middle" fill="#1A1A1A" font-style="" font-weight="normal">success at step t</text>
<path d="M586,1128 L640,1142" stroke="#006e00" stroke-width="2.0" fill="none" marker-end="url(#a)"/>
<path d="M778,1128 L724,1142" stroke="#006e00" stroke-width="2.0" fill="none" marker-end="url(#a)"/>
<path d="M682,1177 L682,1190" stroke="#006e00" stroke-width="2.0" fill="none" marker-end="url(#a)"/>
<rect x="500" y="1194" width="22" height="22" rx="3" fill="#FFFFFF" fill-opacity="1" stroke="#006e00" stroke-width="1.0" stroke-opacity="0.3"/>
<text x="511.0" y="1210.0" font-size="12" text-anchor="middle" fill="#bcbcb7" font-style="" font-weight="normal">0</text>
<rect x="525" y="1194" width="22" height="22" rx="3" fill="#FFFFFF" fill-opacity="1" stroke="#006e00" stroke-width="1.0" stroke-opacity="0.3"/>
<text x="536.0" y="1210.0" font-size="12" text-anchor="middle" fill="#bcbcb7" font-style="" font-weight="normal">0</text>
<rect x="550" y="1194" width="22" height="22" rx="3" fill="#FFFFFF" fill-opacity="1" stroke="#006e00" stroke-width="1.0" stroke-opacity="0.3"/>
<text x="561.0" y="1210.0" font-size="12" text-anchor="middle" fill="#bcbcb7" font-style="" font-weight="normal">0</text>
<rect x="575" y="1194" width="22" height="22" rx="3" fill="#006e00" fill-opacity="0.9" stroke="#006e00" stroke-width="1.0" stroke-opacity="0.3"/>
<text x="586.0" y="1210.0" font-size="12" text-anchor="middle" fill="#FFFFFF" font-style="" font-weight="normal">1</text>
<rect x="600" y="1194" width="22" height="22" rx="3" fill="#FFFFFF" fill-opacity="1" stroke="#006e00" stroke-width="1.0" stroke-opacity="0.3"/>
<text x="611.0" y="1210.0" font-size="12" text-anchor="middle" fill="#bcbcb7" font-style="" font-weight="normal">0</text>
<rect x="625" y="1194" width="22" height="22" rx="3" fill="#FFFFFF" fill-opacity="1" stroke="#006e00" stroke-width="1.0" stroke-opacity="0.3"/>
<text x="636.0" y="1210.0" font-size="12" text-anchor="middle" fill="#bcbcb7" font-style="" font-weight="normal">0</text>
<rect x="650" y="1194" width="22" height="22" rx="3" fill="#FFFFFF" fill-opacity="1" stroke="#006e00" stroke-width="1.0" stroke-opacity="0.3"/>
<text x="661.0" y="1210.0" font-size="12" text-anchor="middle" fill="#bcbcb7" font-style="" font-weight="normal">0</text>
<rect x="675" y="1194" width="22" height="22" rx="3" fill="#FFFFFF" fill-opacity="1" stroke="#006e00" stroke-width="1.0" stroke-opacity="0.3"/>
<text x="686.0" y="1210.0" font-size="12" text-anchor="middle" fill="#bcbcb7" font-style="" font-weight="normal">0</text>
<rect x="700" y="1194" width="22" height="22" rx="3" fill="#FFFFFF" fill-opacity="1" stroke="#006e00" stroke-width="1.0" stroke-opacity="0.3"/>
<text x="711.0" y="1210.0" font-size="12" text-anchor="middle" fill="#bcbcb7" font-style="" font-weight="normal">0</text>
<rect x="725" y="1194" width="22" height="22" rx="3" fill="#FFFFFF" fill-opacity="1" stroke="#006e00" stroke-width="2.0" stroke-opacity="1"/>
<text x="736.0" y="1210.0" font-size="12" text-anchor="middle" fill="#1A1A1A" font-style="" font-weight="normal">0</text>
<path d="M751,1205 L778,1205" stroke="#006e00" stroke-width="2.0" fill="none" marker-end="url(#a)"/>
<rect x="782" y="1186" width="96" height="38" rx="19" fill="#d9efd7" stroke="#006e00" stroke-width="2"/>
<text x="830" y="1211" font-size="16" text-anchor="middle" fill="#1A1A1A" font-style="" font-weight="normal">last  =  0</text>
<text x="682" y="1236" font-size="11.5" text-anchor="middle" fill="#6b6b66" font-style="italic" font-weight="normal">the terminal checkpoint only  --  no latch</text>
<text x="60" y="1282" font-size="15" text-anchor="start" fill="#1A1A1A" font-style="" font-weight="normal">current:     success  =  OR over 10 checkpoints [  || goal[0:4] - cur[0:4] ||  &lt;  20   AND   |dtheta|  &lt;  pi/9  ]</text>
<text x="60" y="1308" font-size="15" text-anchor="start" fill="#1A1A1A" font-style="" font-weight="normal">repaired:   success  =  at t = T only [  || goal[2:4] - cur[2:4] ||  &lt;  20   AND   |dtheta|  &lt;  pi/9  ]</text>
<rect x="60" y="1322" width="198" height="44" rx="5" fill="#FFFFFF" stroke="#3d3d3a" stroke-width="1.4" stroke-opacity="0.7"/>
<text x="159.0" y="1339" font-size="12" text-anchor="middle" fill="#555" font-style="" font-weight="normal">scored dims now</text>
<text x="159.0" y="1358" font-size="16" text-anchor="middle" fill="#b3261e" font-style="" font-weight="bold">0:4 = agent + block</text>
<rect x="266" y="1322" width="198" height="44" rx="5" fill="#FFFFFF" stroke="#3d3d3a" stroke-width="1.4" stroke-opacity="0.7"/>
<text x="365.0" y="1339" font-size="12" text-anchor="middle" fill="#555" font-style="" font-weight="normal">checkpoints</text>
<text x="365.0" y="1358" font-size="16" text-anchor="middle" fill="#b3261e" font-style="" font-weight="bold">latched OR over 10</text>
<rect x="472" y="1322" width="198" height="44" rx="5" fill="#FFFFFF" stroke="#3d3d3a" stroke-width="1.4" stroke-opacity="0.7"/>
<text x="571.0" y="1339" font-size="12" text-anchor="middle" fill="#555" font-style="" font-weight="normal">repaired</text>
<text x="571.0" y="1358" font-size="16" text-anchor="middle" fill="#1A1A1A" font-style="" font-weight="bold">2:5, terminal only</text>
<rect x="678" y="1322" width="198" height="44" rx="5" fill="#FFFFFF" stroke="#3d3d3a" stroke-width="1.4" stroke-opacity="0.7"/>
<text x="777.0" y="1339" font-size="12" text-anchor="middle" fill="#555" font-style="" font-weight="normal">cost</text>
<text x="777.0" y="1358" font-size="16" text-anchor="middle" fill="#1A1A1A" font-style="" font-weight="bold">re-score saved logs</text>
</svg>
