<svg xmlns="http://www.w3.org/2000/svg" width="940" height="1320" viewBox="0 0 940 1320" font-family="Georgia, 'Times New Roman', serif">
<defs>
  <marker id="a" viewBox="0 0 10 10" refX="9" refY="5" markerWidth="7" markerHeight="7" orient="auto-start-reverse"><path d="M0,0 L10,5 L0,10 z" fill="#4A6274"/></marker>
  <marker id="ar" viewBox="0 0 10 10" refX="9" refY="5" markerWidth="6" markerHeight="6" orient="auto-start-reverse"><path d="M0,0 L10,5 L0,10 z" fill="#9E3B3B"/></marker>
  <marker id="am" viewBox="0 0 10 10" refX="1" refY="5" markerWidth="6" markerHeight="6" orient="auto"><path d="M10,0 L0,5 L10,10 z" fill="#9E3B3B"/></marker>
</defs>
<rect width="940" height="1320" fill="white"/>
<circle cx="120" cy="742" r="34" fill="#FAD9BE" stroke="#1A1A1A" stroke-width="1.6"/>
<text x="120" y="749" font-size="20" text-anchor="middle" fill="#1A1A1A" font-style="" font-weight="normal">o<tspan font-size="13" dy="6">t</tspan></text>
<circle cx="812" cy="742" r="34" fill="#FAD9BE" stroke="#1A1A1A" stroke-width="1.6"/>
<text x="812" y="749" font-size="20" text-anchor="middle" fill="#1A1A1A" font-style="" font-weight="normal">o<tspan font-size="13" dy="6">t+1</tspan></text>
<path d="M120,706 L120,646" stroke="#4A6274" stroke-width="2.0" fill="none" marker-end="url(#a)"/>
<path d="M812,706 L812,646" stroke="#4A6274" stroke-width="2.0" fill="none" marker-end="url(#a)"/>
<path d="M64,644 L64,576.0 A56.0,56.0 0 0 1 176,576.0 L176,644 Z" fill="#A9D5D1" stroke="#1A1A1A" stroke-width="2.4"/>
<text x="120.0" y="618" font-size="21" text-anchor="middle" fill="#1A1A1A" font-style="" font-weight="normal">Enc <tspan font-style='italic'>f</tspan></text>
<path d="M756,644 L756,576.0 A56.0,56.0 0 0 1 868,576.0 L868,644 Z" fill="#A9D5D1" stroke="#1A1A1A" stroke-width="2.4"/>
<text x="812.0" y="618" font-size="21" text-anchor="middle" fill="#1A1A1A" font-style="" font-weight="normal">Enc <tspan font-style='italic'>f</tspan></text>
<path d="M120,520 L120,470" stroke="#4A6274" stroke-width="2.0" fill="none" marker-end="url(#a)"/>
<path d="M812,520 L812,470" stroke="#4A6274" stroke-width="2.0" fill="none" marker-end="url(#a)"/>
<rect x="78" y="420" width="84" height="44" rx="4" fill="#F9F2C4" stroke="#1A1A1A" stroke-width="1.4"/>
<text x="120.0" y="448.0" font-size="17" text-anchor="middle" fill="#1A1A1A" font-style="" font-weight="normal">ReLU</text>
<rect x="770" y="420" width="84" height="44" rx="4" fill="#F9F2C4" stroke="#1A1A1A" stroke-width="1.4"/>
<text x="812.0" y="448.0" font-size="17" text-anchor="middle" fill="#1A1A1A" font-style="" font-weight="normal">ReLU</text>
<path d="M120,420 L120,352" stroke="#4A6274" stroke-width="2.0" fill="none" marker-end="url(#a)"/>
<path d="M812,420 L812,352" stroke="#4A6274" stroke-width="2.0" fill="none" marker-end="url(#a)"/>
<rect x="109" y="190" width="22" height="22" fill="#FFFFFF" stroke="#1A1A1A" stroke-width="1.3"/>
<rect x="109" y="215" width="22" height="22" fill="#40566E" stroke="#1A1A1A" stroke-width="1.3"/>
<rect x="109" y="240" width="22" height="22" fill="#40566E" stroke="#1A1A1A" stroke-width="1.3"/>
<rect x="109" y="265" width="22" height="22" fill="#FFFFFF" stroke="#1A1A1A" stroke-width="1.3"/>
<rect x="109" y="290" width="22" height="22" fill="#40566E" stroke="#1A1A1A" stroke-width="1.3"/>
<rect x="109" y="315" width="22" height="22" fill="#FFFFFF" stroke="#1A1A1A" stroke-width="1.3"/>
<text x="120.0" y="178" font-size="19" text-anchor="middle" fill="#1A1A1A" font-style="" font-weight="normal">z<tspan font-size="13" dy="6">t</tspan></text>
<rect x="801" y="190" width="22" height="22" fill="#FFFFFF" stroke="#1A1A1A" stroke-width="1.3"/>
<rect x="801" y="215" width="22" height="22" fill="#40566E" stroke="#1A1A1A" stroke-width="1.3"/>
<rect x="801" y="240" width="22" height="22" fill="#40566E" stroke="#1A1A1A" stroke-width="1.3"/>
<rect x="801" y="265" width="22" height="22" fill="#40566E" stroke="#1A1A1A" stroke-width="1.3"/>
<rect x="801" y="290" width="22" height="22" fill="#FFFFFF" stroke="#1A1A1A" stroke-width="1.3"/>
<rect x="801" y="315" width="22" height="22" fill="#FFFFFF" stroke="#1A1A1A" stroke-width="1.3"/>
<text x="812.0" y="178" font-size="19" text-anchor="middle" fill="#1A1A1A" font-style="" font-weight="normal">z<tspan font-size="13" dy="6">t+1</tspan></text>
<rect x="701" y="190" width="22" height="22" fill="#FFFFFF" stroke="#1A1A1A" stroke-width="1.3"/>
<rect x="701" y="215" width="22" height="22" fill="#40566E" stroke="#1A1A1A" stroke-width="1.3"/>
<rect x="701" y="240" width="22" height="22" fill="#FFFFFF" stroke="#1A1A1A" stroke-width="1.3"/>
<rect x="701" y="265" width="22" height="22" fill="#40566E" stroke="#1A1A1A" stroke-width="1.3"/>
<rect x="701" y="290" width="22" height="22" fill="#40566E" stroke="#1A1A1A" stroke-width="1.3"/>
<rect x="701" y="315" width="22" height="22" fill="#FFFFFF" stroke="#1A1A1A" stroke-width="1.3"/>
<text x="712.0" y="178" font-size="19" text-anchor="middle" fill="#1A1A1A" font-style="" font-weight="normal">z<tspan font-size="13" dy="6">t+1</tspan></text>
<path d="M700.5,160 L705.0,154 L709.5,160" stroke="#1A1A1A" stroke-width="1.7" fill="none" stroke-linecap="round"/>
<path d="M737,262 L795,262" stroke="#9E3B3B" stroke-width="2" marker-end="url(#ar)" marker-start="url(#am)"/>
<text x="766" y="240" font-size="16" text-anchor="middle" fill="#9E3B3B" font-style="" font-weight="normal">MSE (min)</text>
<path d="M232,196 L356.0,196 A66.0,66.0 0 0 1 356.0,328 L232,328 Z" fill="#E2CDE9" stroke="#1A1A1A" stroke-width="2.4"/>
<text x="321.0" y="263.0" font-size="21" text-anchor="middle" fill="#1A1A1A" font-style="" font-weight="normal">Pred</text>
<text x="321.0" y="284.0" font-size="13" text-anchor="middle" fill="#444" font-style="" font-weight="normal">g</text>
<circle cx="318" cy="430" r="38" fill="#FAD9BE" stroke="#1A1A1A" stroke-width="1.6"/>
<text x="318" y="437" font-size="20" text-anchor="middle" fill="#1A1A1A" font-style="" font-weight="normal">a<tspan font-size="13" dy="6">t</tspan></text>
<path d="M318,392 L318,332" stroke="#4A6274" stroke-width="2.0" fill="none" marker-end="url(#a)"/>
<path d="M146,262 L226,262" stroke="#4A6274" stroke-width="2.0" fill="none" marker-end="url(#a)"/>
<text x="186" y="248" font-size="16" text-anchor="middle" fill="#1A1A1A" font-style="" font-weight="normal">z<tspan font-size="12" dy="6">t</tspan></text>
<path d="M424,262 L697,262" stroke="#4A6274" stroke-width="2.0" fill="none" marker-end="url(#a)"/>
<rect x="430" y="556" width="160" height="52" rx="4" fill="#FFFFFF" stroke="#55707F" stroke-width="1.6"/>
<text x="510.0" y="588.0" font-size="17" text-anchor="middle" fill="#1A1A1A" font-style="" font-weight="normal">RDMReg</text>
<path d="M162,442 L206,442 L206,582 L426,582" stroke="#4A6274" stroke-width="2.0" fill="none" marker-end="url(#a)"/>
<path d="M770,442 L726,442 L726,582 L594,582" stroke="#4A6274" stroke-width="2.0" fill="none" marker-end="url(#a)"/>
<text x="466" y="872" font-size="21" text-anchor="middle" fill="#1A1A1A" font-style="" font-weight="normal">(P3) PiWM-actgain -- one scalar; the falsifier that exists to kill P1</text>
<path d="M880,898 L880,120 L300,120 L300,190" stroke="#b3261e" stroke-width="2.0" fill="none" marker-end="url(#a)" stroke-dasharray="6,4"/>
<text x="310" y="106" font-size="16" text-anchor="start" fill="#b3261e" font-style="" font-weight="normal">beta scales the action branch</text>
<rect x="34" y="898" width="872" height="400" rx="10" fill="#f7dcd9" fill-opacity="0.45" stroke="#b3261e" stroke-width="2.4"/>
<text x="54" y="930" font-size="18" text-anchor="start" fill="#b3261e" font-style="" font-weight="bold">module:  make d_state / d_action a hyperparameter instead of an accident</text>
<path d="M52,942 L888,942" stroke="#b3261e" stroke-width="1.2" stroke-opacity="0.5"/>
<rect x="58" y="973" width="76" height="38" rx="19" fill="#f7dcd9" stroke="#b3261e" stroke-width="2"/>
<text x="96" y="998" font-size="16" text-anchor="middle" fill="#1A1A1A" font-style="" font-weight="normal">z<tspan font-size="10" dy="6">t-k</tspan></text>
<rect x="170" y="968" width="168" height="48" rx="5" fill="#FFFFFF" stroke="#b3261e" stroke-width="2"/>
<text x="254.0" y="998.0" font-size="16" text-anchor="middle" fill="#1A1A1A" font-style="" font-weight="normal">SUM_k A_k z_t-k</text>
<path d="M134,992 L166,992" stroke="#b3261e" stroke-width="2.0" fill="none" marker-end="url(#a)"/>
<rect x="64" y="1057" width="64" height="38" rx="19" fill="#f7dcd9" stroke="#b3261e" stroke-width="2"/>
<text x="96" y="1082" font-size="16" text-anchor="middle" fill="#1A1A1A" font-style="" font-weight="normal">a<tspan font-size="11" dy="6">t</tspan></text>
<rect x="170" y="1052" width="168" height="48" rx="5" fill="#FFFFFF" stroke="#b3261e" stroke-width="2"/>
<text x="254.0" y="1082.0" font-size="17" text-anchor="middle" fill="#1A1A1A" font-style="" font-weight="normal">B a_t</text>
<path d="M128,1076 L166,1076" stroke="#b3261e" stroke-width="2.0" fill="none" marker-end="url(#a)"/>
<rect x="374" y="1052" width="214" height="48" rx="5" fill="#FFFFFF" stroke="#b3261e" stroke-width="2"/>
<text x="481.0" y="1076.0" font-size="15" text-anchor="middle" fill="#1A1A1A" font-style="" font-weight="normal">beta . ( . ) / || . ||</text>
<text x="481.0" y="1093.0" font-size="11.5" text-anchor="middle" fill="#555" font-style="" font-weight="normal">RMS-normalise, then scale</text>
<path d="M338,1076 L370,1076" stroke="#b3261e" stroke-width="2.0" fill="none" marker-end="url(#a)"/>
<path d="M338,992 L356,992 L356,1062 L370,1062" stroke="#b3261e" stroke-width="2.0" fill="none" marker-end="url(#a)" stroke-dasharray="5,3"/>
<circle cx="628" cy="1034" r="16" fill="#FFFFFF" stroke="#b3261e" stroke-width="2"/>
<path d="M620,1034 L636,1034 M628,1026 L628,1042" stroke="#b3261e" stroke-width="2.4" stroke-linecap="round"/>
<path d="M338,992 L600,992 L600,1018" stroke="#b3261e" stroke-width="2.0" fill="none" marker-end="url(#a)"/>
<path d="M588,1076 L612,1076 L612,1050" stroke="#b3261e" stroke-width="2.0" fill="none" marker-end="url(#a)"/>
<rect x="682" y="1010" width="190" height="48" rx="5" fill="#FFFFFF" stroke="#b3261e" stroke-width="2"/>
<text x="777.0" y="1040.0" font-size="17" text-anchor="middle" fill="#1A1A1A" font-style="" font-weight="normal">W ReLU( . )</text>
<path d="M644,1034 L678,1034" stroke="#b3261e" stroke-width="2.0" fill="none" marker-end="url(#a)"/>
<text x="60" y="1176" font-size="15" text-anchor="start" fill="#1A1A1A" font-style="" font-weight="normal">beta = 1 with the normaliser is itself a new arm; the baseline has no normaliser at all</text>
<text x="60" y="1204" font-size="16" text-anchor="start" fill="#1A1A1A" font-style="" font-weight="bold">if this recovers what P1 recovers, the group structure is UNNECESSARY and the write-up must say so</text>
<rect x="60" y="1220" width="268" height="44" rx="5" fill="#FFFFFF" stroke="#b3261e" stroke-width="1.4" stroke-opacity="0.7"/>
<text x="194.0" y="1237" font-size="12" text-anchor="middle" fill="#555" font-style="" font-weight="normal">measured today</text>
<text x="194.0" y="1256" font-size="16" text-anchor="middle" fill="#b3261e" font-style="" font-weight="bold">||W|| action 20.3 vs encoder 354.7</text>
<rect x="336" y="1220" width="268" height="44" rx="5" fill="#FFFFFF" stroke="#b3261e" stroke-width="1.4" stroke-opacity="0.7"/>
<text x="470.0" y="1237" font-size="12" text-anchor="middle" fill="#555" font-style="" font-weight="normal">grad_norm</text>
<text x="470.0" y="1256" font-size="16" text-anchor="middle" fill="#b3261e" font-style="" font-weight="bold">0.0075 vs 0.0360</text>
<rect x="612" y="1220" width="268" height="44" rx="5" fill="#FFFFFF" stroke="#b3261e" stroke-width="1.4" stroke-opacity="0.7"/>
<text x="746.0" y="1237" font-size="12" text-anchor="middle" fill="#555" font-style="" font-weight="normal">swept</text>
<text x="746.0" y="1256" font-size="16" text-anchor="middle" fill="#1A1A1A" font-style="" font-weight="bold">beta = 0.3, 3.0</text>
</svg>
