<svg xmlns="http://www.w3.org/2000/svg" width="940" height="1356" viewBox="0 0 940 1356" font-family="Nimbus Sans, Liberation Sans, Helvetica, Arial, sans-serif">
<defs>
  <marker id="a" markerUnits="userSpaceOnUse" viewBox="0 0 10 10" refX="9.1" refY="5" markerWidth="11" markerHeight="11" orient="auto-start-reverse"><path d="M0.6,1.6 L9.6,5 L0.6,8.4 z" fill="#546060"/></marker>
  <marker id="ar" markerUnits="userSpaceOnUse" viewBox="0 0 10 10" refX="9.1" refY="5" markerWidth="11" markerHeight="11" orient="auto-start-reverse"><path d="M0.6,1.6 L9.6,5 L0.6,8.4 z" fill="#A83024"/></marker>
  <marker id="am" markerUnits="userSpaceOnUse" viewBox="0 0 10 10" refX="0.9" refY="5" markerWidth="11" markerHeight="11" orient="auto"><path d="M9.4,1.6 L0.4,5 L9.4,8.4 z" fill="#A83024"/></marker>
  <marker id="e0" markerUnits="userSpaceOnUse" viewBox="0 0 10 10" refX="9.1" refY="5" markerWidth="11" markerHeight="11" orient="auto-start-reverse"><path d="M0.6,1.6 L9.6,5 L0.6,8.4 z" fill="#546060"/></marker>
  <marker id="e1" markerUnits="userSpaceOnUse" viewBox="0 0 10 10" refX="9.1" refY="5" markerWidth="11" markerHeight="11" orient="auto-start-reverse"><path d="M0.6,1.6 L9.6,5 L0.6,8.4 z" fill="#18483C"/></marker>
  <marker id="e2" markerUnits="userSpaceOnUse" viewBox="0 0 10 10" refX="9.1" refY="5" markerWidth="11" markerHeight="11" orient="auto-start-reverse"><path d="M0.6,1.6 L9.6,5 L0.6,8.4 z" fill="#A83024"/></marker>
  <marker id="s3" markerUnits="userSpaceOnUse" viewBox="0 0 10 10" refX="0.9" refY="5" markerWidth="11" markerHeight="11" orient="auto"><path d="M9.4,1.6 L0.4,5 L9.4,8.4 z" fill="#A83024"/></marker>
</defs>
<rect width="940" height="1356" fill="#FFFFFF"/>
<g transform="translate(0,-60)">
<circle cx="120" cy="742" r="34" fill="#DFE4E4" stroke="#546060" stroke-width="1.5"/>
<text x="112.9" y="748.65" font-size="19" text-anchor="start" fill="#14231C">o<tspan font-size="13" dy="5.5">t</tspan><tspan dy="-5.5"></tspan></text>
<circle cx="812" cy="742" r="34" fill="#DFE4E4" stroke="#546060" stroke-width="1.5"/>
<text x="797.5" y="748.65" font-size="19" text-anchor="start" fill="#14231C">o<tspan font-size="13" dy="5.5">t+1</tspan><tspan dy="-5.5"></tspan></text>
<path d="M120,706 L120,646" stroke="#546060" stroke-width="1.8" fill="none" stroke-linecap="round" marker-end="url(#e0)"/>
<path d="M812,706 L812,646" stroke="#546060" stroke-width="1.8" fill="none" stroke-linecap="round" marker-end="url(#e0)"/>
<path d="M64,644 L64,576.0 A56.0,56.0 0 0 1 176,576.0 L176,644 Z" fill="#D8F0E4" stroke="#18483C" stroke-width="1.8" stroke-linejoin="round"/>
<text x="96.1" y="620" font-size="21" text-anchor="start" fill="#14231C">Enc <tspan font-style='italic'>f</tspan></text>
<path d="M756,644 L756,576.0 A56.0,56.0 0 0 1 868,576.0 L868,644 Z" fill="#D8F0E4" stroke="#18483C" stroke-width="1.8" stroke-linejoin="round"/>
<text x="788.1" y="620" font-size="21" text-anchor="start" fill="#14231C">Enc <tspan font-style='italic'>f</tspan></text>
<path d="M120,520 L120,470" stroke="#546060" stroke-width="1.8" fill="none" stroke-linecap="round" marker-end="url(#e0)"/>
<path d="M812,520 L812,470" stroke="#546060" stroke-width="1.8" fill="none" stroke-linecap="round" marker-end="url(#e0)"/>
<rect x="78" y="420" width="84" height="44" rx="6" fill="#F7E8C8" stroke="#C88A1E" stroke-width="1.3"/>
<text x="120.0" y="448.0" font-size="16" text-anchor="middle" fill="#14231C">ReLU</text>
<rect x="770" y="420" width="84" height="44" rx="6" fill="#F7E8C8" stroke="#C88A1E" stroke-width="1.3"/>
<text x="812.0" y="448.0" font-size="16" text-anchor="middle" fill="#14231C">ReLU</text>
<path d="M120,420 L120,352" stroke="#546060" stroke-width="1.8" fill="none" stroke-linecap="round" marker-end="url(#e0)"/>
<path d="M812,420 L812,352" stroke="#546060" stroke-width="1.8" fill="none" stroke-linecap="round" marker-end="url(#e0)"/>
<rect x="109" y="190" width="22" height="22" fill="#FFFFFF" stroke="#546060" stroke-width="1.1"/>
<rect x="109" y="215" width="22" height="22" fill="#546060" stroke="#546060" stroke-width="1.1"/>
<rect x="109" y="240" width="22" height="22" fill="#546060" stroke="#546060" stroke-width="1.1"/>
<rect x="109" y="265" width="22" height="22" fill="#FFFFFF" stroke="#546060" stroke-width="1.1"/>
<rect x="109" y="290" width="22" height="22" fill="#546060" stroke="#546060" stroke-width="1.1"/>
<rect x="109" y="315" width="22" height="22" fill="#FFFFFF" stroke="#546060" stroke-width="1.1"/>
<text x="113.4" y="177" font-size="19" text-anchor="start" fill="#14231C">z<tspan font-size="13" dy="5.5">t</tspan><tspan dy="-5.5"></tspan></text>
<rect x="801" y="190" width="22" height="22" fill="#FFFFFF" stroke="#546060" stroke-width="1.1"/>
<rect x="801" y="215" width="22" height="22" fill="#546060" stroke="#546060" stroke-width="1.1"/>
<rect x="801" y="240" width="22" height="22" fill="#546060" stroke="#546060" stroke-width="1.1"/>
<rect x="801" y="265" width="22" height="22" fill="#546060" stroke="#546060" stroke-width="1.1"/>
<rect x="801" y="290" width="22" height="22" fill="#FFFFFF" stroke="#546060" stroke-width="1.1"/>
<rect x="801" y="315" width="22" height="22" fill="#FFFFFF" stroke="#546060" stroke-width="1.1"/>
<text x="798.0" y="177" font-size="19" text-anchor="start" fill="#14231C">z<tspan font-size="13" dy="5.5">t+1</tspan><tspan dy="-5.5"></tspan></text>
<rect x="701" y="190" width="22" height="22" fill="#FFFFFF" stroke="#546060" stroke-width="1.1"/>
<rect x="701" y="215" width="22" height="22" fill="#546060" stroke="#546060" stroke-width="1.1"/>
<rect x="701" y="240" width="22" height="22" fill="#FFFFFF" stroke="#546060" stroke-width="1.1"/>
<rect x="701" y="265" width="22" height="22" fill="#546060" stroke="#546060" stroke-width="1.1"/>
<rect x="701" y="290" width="22" height="22" fill="#546060" stroke="#546060" stroke-width="1.1"/>
<rect x="701" y="315" width="22" height="22" fill="#FFFFFF" stroke="#546060" stroke-width="1.1"/>
<text x="698.0" y="177" font-size="19" text-anchor="start" fill="#14231C">z<tspan font-size="13" dy="5.5">t+1</tspan><tspan dy="-5.5"></tspan></text>
<path d="M697.5,164 L702.0,158.5 L706.5,164" stroke="#14231C" stroke-width="1.6" fill="none" stroke-linecap="round" stroke-linejoin="round"/>
<path d="M737,262 L795,262" stroke="#A83024" stroke-width="1.8" stroke-linecap="round" marker-end="url(#ar)" marker-start="url(#am)"/>
<text x="762" y="240" font-size="14" text-anchor="middle" fill="#A83024">MSE (min)</text>
<path d="M232,196 L356.0,196 A66.0,66.0 0 0 1 356.0,328 L232,328 Z" fill="#DED6EA" stroke="#543C84" stroke-width="1.8" stroke-linejoin="round"/>
<text x="302.0" y="262.0" font-size="21" text-anchor="middle" fill="#14231C">Pred</text>
<text x="302.0" y="284.0" font-size="13" text-anchor="middle" fill="#6C786C">g</text>
<circle cx="318" cy="430" r="38" fill="#DFE4E4" stroke="#546060" stroke-width="1.5"/>
<text x="310.9" y="436.65" font-size="19" text-anchor="start" fill="#14231C">a<tspan font-size="13" dy="5.5">t</tspan><tspan dy="-5.5"></tspan></text>
<path d="M318,392 L318,332" stroke="#546060" stroke-width="1.8" fill="none" stroke-linecap="round" marker-end="url(#e0)"/>
<path d="M146,262 L226,262" stroke="#546060" stroke-width="1.8" fill="none" stroke-linecap="round" marker-end="url(#e0)"/>
<text x="180.6" y="248" font-size="15" text-anchor="start" fill="#6C786C">z<tspan font-size="12" dy="5.0">t</tspan><tspan dy="-5.0"></tspan></text>
<path d="M424,262 L697,262" stroke="#546060" stroke-width="1.8" fill="none" stroke-linecap="round" marker-end="url(#e0)"/>
<rect x="430" y="556" width="160" height="52" rx="6" fill="#FFFFFF" stroke="#546060" stroke-width="1.5"/>
<text x="510.0" y="588.0" font-size="17" text-anchor="middle" fill="#14231C">RDMReg</text>
<path d="M162,442 L206,442 L206,582 L426,582" stroke="#546060" stroke-width="1.8" fill="none" stroke-linejoin="round" stroke-linecap="round" marker-end="url(#e0)"/>
<path d="M770,442 L726,442 L726,582 L594,582" stroke="#546060" stroke-width="1.8" fill="none" stroke-linejoin="round" stroke-linecap="round" marker-end="url(#e0)"/>
<text x="149.9" y="872" font-size="20" text-anchor="start"><tspan fill="#18483C" font-weight="bold">(M1)&#160;</tspan><tspan fill="#14231C" font-weight="bold">probe</tspan><tspan fill="#6C786C" font-weight="normal">&#160;&#8211;&#160;is the block pose linearly decodable from the frozen code?</tspan></text>
<path d="M880,908 L880,676 L850,676 L850,648" stroke="#18483C" stroke-width="1.8" fill="none" stroke-linejoin="round" stroke-linecap="round" marker-end="url(#e1)" stroke-dasharray="6,4"/>
<text x="866" y="806" font-size="15.5" text-anchor="end" fill="#18483C">frozen – the probe reads it, no gradient</text>
</g>
<rect x="34" y="848" width="872" height="480" rx="10" fill="#D8F0E4" fill-opacity="0.45" stroke="#18483C" stroke-width="2.2"/>
<text x="54" y="880" font-size="18" text-anchor="start" fill="#18483C" font-weight="bold">module:  a ridge probe on the frozen code, with two matched controls</text>
<path d="M52,892 L888,892" stroke="#18483C" stroke-width="1.2" stroke-opacity="0.5"/>
<circle cx="96" cy="962" r="24" fill="#D8F0E4" stroke="#18483C" stroke-width="1.5"/>
<text x="90.7" y="967.25" font-size="15" text-anchor="start" fill="#14231C">z<tspan font-size="11" dy="4.6">t</tspan><tspan dy="-4.6"></tspan></text>
<rect x="150" y="910" width="152" height="104" rx="6" fill="#FFFFFF" stroke="#18483C" stroke-width="1.8"/>
<text x="226.0" y="962.0" font-size="19" text-anchor="middle" fill="#14231C">ridge  W</text>
<text x="226.0" y="979.0" font-size="11.5" text-anchor="middle" fill="#6C786C">closed form, alpha by CV</text>
<path d="M120,962 L146,962" stroke="#18483C" stroke-width="1.8" fill="none" stroke-linecap="round" marker-end="url(#e1)"/>
<rect x="324" y="913" width="144" height="38" rx="19" fill="#D8F0E4" stroke="#18483C" stroke-width="1.8"/>
<text x="396" y="938" font-size="16" text-anchor="middle" fill="#14231C">( x , y )</text>
<path d="M302,932 L320,932" stroke="#18483C" stroke-width="1.8" fill="none" stroke-linecap="round" marker-end="url(#e1)"/>
<rect x="500" y="910" width="176" height="44" rx="6" fill="#FFFFFF" stroke="#18483C" stroke-width="1.8"/>
<text x="588.0" y="938.0" font-size="13" text-anchor="middle" fill="#14231C">median position error</text>
<path d="M468,932 L496,932" stroke="#18483C" stroke-width="1.8" fill="none" stroke-linecap="round" marker-end="url(#e1)"/>
<rect x="324" y="973" width="144" height="38" rx="19" fill="#D8F0E4" stroke="#18483C" stroke-width="1.8"/>
<text x="396" y="998" font-size="16" text-anchor="middle" fill="#14231C">( cos θ , sin θ )</text>
<path d="M302,992 L320,992" stroke="#18483C" stroke-width="1.8" fill="none" stroke-linecap="round" marker-end="url(#e1)"/>
<rect x="500" y="970" width="176" height="44" rx="6" fill="#FFFFFF" stroke="#18483C" stroke-width="1.8"/>
<text x="588.0" y="998.0" font-size="13" text-anchor="middle" fill="#14231C">median angular error</text>
<path d="M468,992 L496,992" stroke="#18483C" stroke-width="1.8" fill="none" stroke-linecap="round" marker-end="url(#e1)"/>
<text x="692" y="938" font-size="12.5" text-anchor="start" fill="#6C786C">reported, not gating</text>
<rect x="706" y="973" width="172" height="38" rx="19" fill="#FFFFFF" stroke="#A83024" stroke-width="1.8"/>
<text x="792" y="998" font-size="16" text-anchor="middle" fill="#14231C">&gt; 20°  =  FAIL</text>
<path d="M676,992 L702,992" stroke="#A83024" stroke-width="1.8" fill="none" stroke-linecap="round" marker-end="url(#e2)"/>
<text x="150" y="1048" font-size="13" text-anchor="start" fill="#546060" font-weight="bold">control 1   –   shuffled labels</text>
<circle cx="96" cy="1082" r="24" fill="#DFE4E4" stroke="#546060" stroke-width="1.5"/>
<text x="90.7" y="1087.25" font-size="15" text-anchor="start" fill="#14231C">z<tspan font-size="11" dy="4.6">t</tspan><tspan dy="-4.6"></tspan></text>
<rect x="150" y="1060" width="152" height="44" rx="6" fill="#FFFFFF" stroke="#546060" stroke-width="1.8"/>
<text x="226.0" y="1082.0" font-size="16" text-anchor="middle" fill="#14231C">ridge  W</text>
<text x="226.0" y="1099.0" font-size="11.5" text-anchor="middle" fill="#6C786C">targets PERMUTED</text>
<path d="M120,1082 L146,1082" stroke="#546060" stroke-width="1.5" fill="none" stroke-linecap="round" marker-end="url(#e0)"/>
<rect x="344" y="1063" width="104" height="38" rx="19" fill="#FFFFFF" stroke="#546060" stroke-width="1.8"/>
<text x="391.6" y="1088" font-size="16" text-anchor="start" fill="#14231C">b</text>
<path d="M392.0,1071.7 L396.0,1066.5800000000002 L400.0,1071.7" stroke="#14231C" stroke-width="1.6" fill="none" stroke-linecap="round" stroke-linejoin="round"/>
<path d="M302,1082 L340,1082" stroke="#546060" stroke-width="1.5" fill="none" stroke-linecap="round" marker-end="url(#e0)"/>
<rect x="500" y="1060" width="176" height="44" rx="6" fill="#FFFFFF" stroke="#546060" stroke-width="1.8"/>
<text x="588.0" y="1088.0" font-size="13" text-anchor="middle" fill="#14231C">median angular error</text>
<path d="M448,1082 L496,1082" stroke="#546060" stroke-width="1.5" fill="none" stroke-linecap="round" marker-end="url(#e0)"/>
<rect x="706" y="1063" width="172" height="38" rx="19" fill="#FFFFFF" stroke="#546060" stroke-width="1.8"/>
<text x="792" y="1088" font-size="16" text-anchor="middle" fill="#14231C">chance floor</text>
<path d="M676,1082 L702,1082" stroke="#546060" stroke-width="1.5" fill="none" stroke-linecap="round" marker-end="url(#e0)"/>
<text x="150" y="1132" font-size="13" text-anchor="start" fill="#546060" font-weight="bold">control 2   –   block from agent</text>
<circle cx="96" cy="1166" r="24" fill="#DFE4E4" stroke="#546060" stroke-width="1.5"/>
<text x="90.3" y="1171.25" font-size="15" text-anchor="start" fill="#14231C">p<tspan font-size="11" dy="4.6">t</tspan><tspan dy="-4.6"></tspan></text>
<rect x="150" y="1144" width="152" height="44" rx="6" fill="#FFFFFF" stroke="#546060" stroke-width="1.8"/>
<text x="226.0" y="1166.0" font-size="16" text-anchor="middle" fill="#14231C">ridge  W</text>
<text x="226.0" y="1183.0" font-size="11.5" text-anchor="middle" fill="#6C786C">input = proprio only</text>
<path d="M120,1166 L146,1166" stroke="#546060" stroke-width="1.5" fill="none" stroke-linecap="round" marker-end="url(#e0)"/>
<rect x="344" y="1147" width="104" height="38" rx="19" fill="#FFFFFF" stroke="#546060" stroke-width="1.8"/>
<text x="391.6" y="1172" font-size="16" text-anchor="start" fill="#14231C">b</text>
<path d="M392.0,1155.7 L396.0,1150.5800000000002 L400.0,1155.7" stroke="#14231C" stroke-width="1.6" fill="none" stroke-linecap="round" stroke-linejoin="round"/>
<path d="M302,1166 L340,1166" stroke="#546060" stroke-width="1.5" fill="none" stroke-linecap="round" marker-end="url(#e0)"/>
<rect x="500" y="1144" width="176" height="44" rx="6" fill="#FFFFFF" stroke="#546060" stroke-width="1.8"/>
<text x="588.0" y="1172.0" font-size="13" text-anchor="middle" fill="#14231C">median angular error</text>
<path d="M448,1166 L496,1166" stroke="#546060" stroke-width="1.5" fill="none" stroke-linecap="round" marker-end="url(#e0)"/>
<rect x="706" y="1147" width="172" height="38" rx="19" fill="#FFFFFF" stroke="#546060" stroke-width="1.8"/>
<text x="792" y="1172" font-size="16" text-anchor="middle" fill="#14231C">leak floor</text>
<path d="M676,1166 L702,1166" stroke="#546060" stroke-width="1.5" fill="none" stroke-linecap="round" marker-end="url(#e0)"/>
<text x="60" y="1222" font-size="17" text-anchor="start" fill="#14231C">b</text>
<path d="M60.45,1204.7 L64.7,1199.26 L68.95,1204.7" stroke="#14231C" stroke-width="1.6" fill="none" stroke-linecap="round" stroke-linejoin="round"/>
<text x="69.5" y="1222" font-size="17.0" text-anchor="start" fill="#14231C">  =  W z</text>
<text x="127.606" y="1222" font-size="17.0" text-anchor="start" fill="#14231C"><tspan font-size="13" dy="5.5">t</tspan><tspan dy="-5.5"></tspan></text>
<text x="131.22" y="1222" font-size="17.0" text-anchor="start" fill="#14231C"> ,     W  =  argmin  </text>
<text x="270.586" y="1222" font-size="17.0" text-anchor="start" fill="#14231C">∥</text>
<text x="282.809" y="1222" font-size="17.0" text-anchor="start" fill="#14231C">W Z − B</text>
<text x="344.689" y="1222" font-size="17.0" text-anchor="start" fill="#14231C">∥</text>
<text x="356.91200000000003" y="1222" font-size="17.0" text-anchor="start" fill="#14231C"><tspan font-size="11" dy="-6.1">2</tspan><tspan dy="6.1"></tspan></text>
<text x="363.028" y="1222" font-size="17.0" text-anchor="start" fill="#14231C">  +  λ </text>
<text x="405.086" y="1222" font-size="17.0" text-anchor="start" fill="#14231C">∥</text>
<text x="417.309" y="1222" font-size="17.0" text-anchor="start" fill="#14231C">W</text>
<text x="433.357" y="1222" font-size="17.0" text-anchor="start" fill="#14231C">∥</text>
<text x="445.58000000000004" y="1222" font-size="17.0" text-anchor="start" fill="#14231C"><tspan font-size="11" dy="-6.1">2</tspan><tspan dy="6.1"></tspan></text>
<text x="557.2" y="1222" font-size="17.0" text-anchor="start" fill="#14231C">B  =  [ x , y , cos θ , sin θ ]</text>
<text x="60" y="1248" font-size="13.5" text-anchor="start" fill="#14231C">B comes from states.pth – MEASUREMENT ONLY, never in a training loss. The encoder is frozen: the probe takes no gradient.</text>
<rect x="60" y="1264" width="198" height="44" rx="6" fill="#FFFFFF" stroke="#18483C" stroke-width="1.3" stroke-opacity="0.75"/>
<text x="159.0" y="1281" font-size="12" text-anchor="middle" fill="#6C786C">falsifier</text>
<text x="159.0" y="1300" font-size="16" text-anchor="middle" fill="#A83024" font-weight="bold">&gt; 20° median error</text>
<rect x="266" y="1264" width="198" height="44" rx="6" fill="#FFFFFF" stroke="#18483C" stroke-width="1.3" stroke-opacity="0.75"/>
<text x="365.0" y="1281" font-size="12" text-anchor="middle" fill="#6C786C">probe</text>
<text x="365.0" y="1300" font-size="16" text-anchor="middle" fill="#14231C" font-weight="bold">ridge, closed form</text>
<rect x="472" y="1264" width="198" height="44" rx="6" fill="#FFFFFF" stroke="#18483C" stroke-width="1.3" stroke-opacity="0.75"/>
<text x="571.0" y="1281" font-size="12" text-anchor="middle" fill="#6C786C">control 1</text>
<text x="571.0" y="1300" font-size="16" text-anchor="middle" fill="#14231C" font-weight="bold">labels shuffled</text>
<rect x="678" y="1264" width="198" height="44" rx="6" fill="#FFFFFF" stroke="#18483C" stroke-width="1.3" stroke-opacity="0.75"/>
<text x="777.0" y="1281" font-size="12" text-anchor="middle" fill="#6C786C">control 2</text>
<text x="777.0" y="1300" font-size="16" text-anchor="middle" fill="#14231C" font-weight="bold">block from agent only</text>
</svg>
