<?xml version="1.0" encoding="UTF-8"?>
<svg xmlns="http://www.w3.org/2000/svg" width="940" height="1344" viewBox="0 0 940 1344" font-family="Nimbus Sans, Liberation Sans, Helvetica, Arial, sans-serif">
<defs>
  <marker id="a" markerUnits="userSpaceOnUse" viewBox="0 0 10 10" refX="9.1" refY="5" markerWidth="11" markerHeight="11" orient="auto-start-reverse"><path d="M0.6,1.6 L9.6,5 L0.6,8.4 z" fill="#546060"/></marker>
  <marker id="ar" markerUnits="userSpaceOnUse" viewBox="0 0 10 10" refX="9.1" refY="5" markerWidth="11" markerHeight="11" orient="auto-start-reverse"><path d="M0.6,1.6 L9.6,5 L0.6,8.4 z" fill="#A83024"/></marker>
  <marker id="am" markerUnits="userSpaceOnUse" viewBox="0 0 10 10" refX="0.9" refY="5" markerWidth="11" markerHeight="11" orient="auto"><path d="M9.4,1.6 L0.4,5 L9.4,8.4 z" fill="#A83024"/></marker>
  <marker id="e0" markerUnits="userSpaceOnUse" viewBox="0 0 10 10" refX="9.1" refY="5" markerWidth="11" markerHeight="11" orient="auto-start-reverse"><path d="M0.6,1.6 L9.6,5 L0.6,8.4 z" fill="#546060"/></marker>
  <marker id="e1" markerUnits="userSpaceOnUse" viewBox="0 0 10 10" refX="9.1" refY="5" markerWidth="11" markerHeight="11" orient="auto-start-reverse"><path d="M0.6,1.6 L9.6,5 L0.6,8.4 z" fill="#2E7D6F"/></marker>
  <marker id="e2" markerUnits="userSpaceOnUse" viewBox="0 0 10 10" refX="9.1" refY="5" markerWidth="11" markerHeight="11" orient="auto-start-reverse"><path d="M0.6,1.6 L9.6,5 L0.6,8.4 z" fill="#18483C"/></marker>
  <marker id="e3" markerUnits="userSpaceOnUse" viewBox="0 0 10 10" refX="9.1" refY="5" markerWidth="11" markerHeight="11" orient="auto-start-reverse"><path d="M0.6,1.6 L9.6,5 L0.6,8.4 z" fill="#A83024"/></marker>
  <marker id="e4" markerUnits="userSpaceOnUse" viewBox="0 0 10 10" refX="9.1" refY="5" markerWidth="11" markerHeight="11" orient="auto-start-reverse"><path d="M0.6,1.6 L9.6,5 L0.6,8.4 z" fill="#543C84"/></marker>
  <marker id="e5" markerUnits="userSpaceOnUse" viewBox="0 0 10 10" refX="9.1" refY="5" markerWidth="11" markerHeight="11" orient="auto-start-reverse"><path d="M0.6,1.6 L9.6,5 L0.6,8.4 z" fill="#C88A1E"/></marker>
  <marker id="s6" markerUnits="userSpaceOnUse" viewBox="0 0 10 10" refX="0.9" refY="5" markerWidth="11" markerHeight="11" orient="auto"><path d="M9.4,1.6 L0.4,5 L9.4,8.4 z" fill="#A83024"/></marker>
</defs>
<rect width="940" height="1344" fill="#FFFFFF"/>
<g transform="translate(0,-60)">
<circle cx="120" cy="742" r="34" fill="#DFE4E4" stroke="#546060" stroke-width="1.5"/>
<text x="112.9" y="748.65" font-size="19" text-anchor="start" fill="#14231C">o<tspan font-size="13" dy="5.5">t</tspan><tspan dy="-5.5"></tspan></text>
<circle cx="812" cy="742" r="34" fill="#DFE4E4" stroke="#546060" stroke-width="1.5"/>
<text x="797.5" y="748.65" font-size="19" text-anchor="start" fill="#14231C">o<tspan font-size="13" dy="5.5">t+1</tspan><tspan dy="-5.5"></tspan></text>
<path d="M120,706 L120,646" stroke="#546060" stroke-width="1.8" fill="none" stroke-linecap="round" marker-end="url(#e0)"/>
<path d="M812,706 L812,646" stroke="#546060" stroke-width="1.8" fill="none" stroke-linecap="round" marker-end="url(#e0)"/>
<path d="M64,644 L64,576.0 A56.0,56.0 0 0 1 176,576.0 L176,644 Z" fill="#D8F0E4" stroke="#18483C" stroke-width="1.8" stroke-linejoin="round"/>
<text x="96.1" y="620" font-size="21" text-anchor="start" fill="#14231C">Enc <tspan font-style='italic'>f</tspan></text>
<path d="M756,644 L756,576.0 A56.0,56.0 0 0 1 868,576.0 L868,644 Z" fill="#D8F0E4" stroke="#18483C" stroke-width="1.8" stroke-linejoin="round"/>
<text x="788.1" y="620" font-size="21" text-anchor="start" fill="#14231C">Enc <tspan font-style='italic'>f</tspan></text>
<path d="M120,520 L120,470" stroke="#546060" stroke-width="1.8" fill="none" stroke-linecap="round" marker-end="url(#e0)"/>
<path d="M812,520 L812,470" stroke="#546060" stroke-width="1.8" fill="none" stroke-linecap="round" marker-end="url(#e0)"/>
<rect x="78" y="420" width="84" height="44" rx="6" fill="#F7E8C8" stroke="#C88A1E" stroke-width="1.3"/>
<text x="120.0" y="448.0" font-size="16" text-anchor="middle" fill="#14231C">ReLU</text>
<rect x="770" y="420" width="84" height="44" rx="6" fill="#F7E8C8" stroke="#C88A1E" stroke-width="1.3"/>
<text x="812.0" y="448.0" font-size="16" text-anchor="middle" fill="#14231C">ReLU</text>
<path d="M120,420 L120,352" stroke="#546060" stroke-width="1.8" fill="none" stroke-linecap="round" marker-end="url(#e0)"/>
<path d="M812,420 L812,352" stroke="#546060" stroke-width="1.8" fill="none" stroke-linecap="round" marker-end="url(#e0)"/>
<rect x="109" y="190" width="22" height="22" fill="#FFFFFF" stroke="#546060" stroke-width="1.1"/>
<rect x="109" y="215" width="22" height="22" fill="#546060" stroke="#546060" stroke-width="1.1"/>
<rect x="109" y="240" width="22" height="22" fill="#546060" stroke="#546060" stroke-width="1.1"/>
<rect x="109" y="265" width="22" height="22" fill="#FFFFFF" stroke="#546060" stroke-width="1.1"/>
<rect x="109" y="290" width="22" height="22" fill="#546060" stroke="#546060" stroke-width="1.1"/>
<rect x="109" y="315" width="22" height="22" fill="#FFFFFF" stroke="#546060" stroke-width="1.1"/>
<text x="113.4" y="177" font-size="19" text-anchor="start" fill="#14231C">z<tspan font-size="13" dy="5.5">t</tspan><tspan dy="-5.5"></tspan></text>
<rect x="801" y="190" width="22" height="22" fill="#FFFFFF" stroke="#546060" stroke-width="1.1"/>
<rect x="801" y="215" width="22" height="22" fill="#546060" stroke="#546060" stroke-width="1.1"/>
<rect x="801" y="240" width="22" height="22" fill="#546060" stroke="#546060" stroke-width="1.1"/>
<rect x="801" y="265" width="22" height="22" fill="#546060" stroke="#546060" stroke-width="1.1"/>
<rect x="801" y="290" width="22" height="22" fill="#FFFFFF" stroke="#546060" stroke-width="1.1"/>
<rect x="801" y="315" width="22" height="22" fill="#FFFFFF" stroke="#546060" stroke-width="1.1"/>
<text x="798.0" y="177" font-size="19" text-anchor="start" fill="#14231C">z<tspan font-size="13" dy="5.5">t+1</tspan><tspan dy="-5.5"></tspan></text>
<rect x="701" y="190" width="22" height="22" fill="#FFFFFF" stroke="#546060" stroke-width="1.1"/>
<rect x="701" y="215" width="22" height="22" fill="#546060" stroke="#546060" stroke-width="1.1"/>
<rect x="701" y="240" width="22" height="22" fill="#FFFFFF" stroke="#546060" stroke-width="1.1"/>
<rect x="701" y="265" width="22" height="22" fill="#546060" stroke="#546060" stroke-width="1.1"/>
<rect x="701" y="290" width="22" height="22" fill="#546060" stroke="#546060" stroke-width="1.1"/>
<rect x="701" y="315" width="22" height="22" fill="#FFFFFF" stroke="#546060" stroke-width="1.1"/>
<text x="698.0" y="177" font-size="19" text-anchor="start" fill="#14231C">z<tspan font-size="13" dy="5.5">t+1</tspan><tspan dy="-5.5"></tspan></text>
<path d="M697.5,164 L702.0,158.5 L706.5,164" stroke="#14231C" stroke-width="1.6" fill="none" stroke-linecap="round" stroke-linejoin="round"/>
<path d="M737,262 L795,262" stroke="#A83024" stroke-width="1.8" stroke-linecap="round" marker-end="url(#ar)" marker-start="url(#am)"/>
<text x="762" y="240" font-size="14" text-anchor="middle" fill="#A83024">MSE (min)</text>
<path d="M232,196 L356.0,196 A66.0,66.0 0 0 1 356.0,328 L232,328 Z" fill="#DED6EA" stroke="#543C84" stroke-width="1.8" stroke-linejoin="round"/>
<text x="302.0" y="262.0" font-size="21" text-anchor="middle" fill="#14231C">Pred</text>
<text x="302.0" y="284.0" font-size="13" text-anchor="middle" fill="#6C786C">g</text>
<circle cx="318" cy="430" r="38" fill="#DFE4E4" stroke="#546060" stroke-width="1.5"/>
<text x="310.9" y="436.65" font-size="19" text-anchor="start" fill="#14231C">a<tspan font-size="13" dy="5.5">t</tspan><tspan dy="-5.5"></tspan></text>
<path d="M318,392 L318,332" stroke="#546060" stroke-width="1.8" fill="none" stroke-linecap="round" marker-end="url(#e0)"/>
<path d="M146,262 L226,262" stroke="#546060" stroke-width="1.8" fill="none" stroke-linecap="round" marker-end="url(#e0)"/>
<text x="180.6" y="248" font-size="15" text-anchor="start" fill="#6C786C">z<tspan font-size="12" dy="5.0">t</tspan><tspan dy="-5.0"></tspan></text>
<path d="M424,262 L697,262" stroke="#546060" stroke-width="1.8" fill="none" stroke-linecap="round" marker-end="url(#e0)"/>
<rect x="430" y="556" width="160" height="52" rx="6" fill="#FFFFFF" stroke="#546060" stroke-width="1.5"/>
<text x="510.0" y="588.0" font-size="17" text-anchor="middle" fill="#14231C">RDMReg</text>
<path d="M162,442 L206,442 L206,582 L426,582" stroke="#546060" stroke-width="1.8" fill="none" stroke-linejoin="round" stroke-linecap="round" marker-end="url(#e0)"/>
<path d="M770,442 L726,442 L726,582 L594,582" stroke="#546060" stroke-width="1.8" fill="none" stroke-linejoin="round" stroke-linecap="round" marker-end="url(#e0)"/>
<text x="212.9" y="872" font-size="20" text-anchor="start"><tspan fill="#18483C" font-weight="bold">(P5)&#160;</tspan><tspan fill="#14231C" font-weight="bold">PiWM-actinfo-cond</tspan><tspan fill="#6C786C" font-weight="normal">&#160;&#8211;&#160;negatives from p(a|z), not p(a)</tspan></text>
<path d="M880,908 L880,120 L620,120 L620,254.0 A8,8 0 0 1 620,270.0 L620,430 L358,430" stroke="#543C84" stroke-width="1.8" fill="none" stroke-linejoin="round" stroke-linecap="round" marker-end="url(#e4)" stroke-dasharray="6,4"/>
<text x="870" y="106" font-size="15.5" text-anchor="end" fill="#543C84">K negatives, drawn at the SAME state</text>
</g>
<rect x="34" y="848" width="872" height="468" rx="10" fill="#DED6EA" fill-opacity="0.45" stroke="#543C84" stroke-width="2.2"/>
<text x="54" y="880" font-size="18" text-anchor="start" fill="#543C84" font-weight="bold">module:  the proposal distribution the negatives come from — the objective is unchanged</text>
<path d="M52,892 L888,892" stroke="#543C84" stroke-width="1.2" stroke-opacity="0.5"/>
<rect x="78" y="908" width="360" height="236" rx="8" fill="#FFFFFF" stroke="#546060" stroke-width="1.8"/>
<text x="258.0" y="938" font-size="17" text-anchor="middle" fill="#546060" font-weight="bold">V2:  q = p(a)</text>
<text x="258.0" y="960" font-size="12.5" text-anchor="middle" fill="#6C786C">permute a within the batch</text>
<circle cx="268" cy="1026" r="5.5" fill="#546060" stroke="#546060" stroke-width="1.5"/>
<circle cx="196" cy="1064" r="5.5" fill="#546060" stroke="#546060" stroke-width="1.5"/>
<circle cx="236" cy="1082" r="5.5" fill="#546060" stroke="#546060" stroke-width="1.5"/>
<circle cx="138" cy="993" r="5.5" fill="#546060" stroke="#546060" stroke-width="1.5"/>
<circle cx="284" cy="984" r="5.5" fill="#546060" stroke="#546060" stroke-width="1.5"/>
<circle cx="382" cy="1000" r="5.5" fill="#546060" stroke="#546060" stroke-width="1.5"/>
<circle cx="398" cy="1085" r="5.5" fill="#546060" stroke="#546060" stroke-width="1.5"/>
<circle cx="142" cy="1115" r="5.5" fill="#546060" stroke="#546060" stroke-width="1.5"/>
<circle cx="276" cy="1126" r="5.5" fill="#546060" stroke="#546060" stroke-width="1.5"/>
<circle cx="356" cy="1122" r="5.5" fill="#546060" stroke="#546060" stroke-width="1.5"/>
<circle cx="230" cy="1048" r="8" fill="#DFE4E4" stroke="#546060" stroke-width="2.4"/>
<text x="246" y="1053" font-size="15" text-anchor="start" fill="#546060">z<tspan font-size="11" dy="4.6">t</tspan><tspan dy="-4.6"></tspan></text>
<rect x="502" y="908" width="360" height="236" rx="8" fill="#FFFFFF" stroke="#543C84" stroke-width="1.8"/>
<text x="620.6" y="938" font-size="17" text-anchor="start" fill="#543C84" font-weight="bold">P5:  q ~ p(a | z<tspan font-size="10" dy="4.2">t</tspan><tspan dy="-4.2"></tspan>)</text>
<text x="610.1" y="960" font-size="12.5" text-anchor="start" fill="#6C786C">actions of the K nearest z<tspan font-size="10" dy="4.2">t</tspan><tspan dy="-4.2"></tspan></text>
<circle cx="654" cy="1048" r="52" fill="none" stroke="#543C84" stroke-width="1.6" stroke-dasharray="6,4"/>
<circle cx="692" cy="1026" r="5.5" fill="#543C84" stroke="#543C84" stroke-width="1.5"/>
<circle cx="620" cy="1064" r="5.5" fill="#543C84" stroke="#543C84" stroke-width="1.5"/>
<circle cx="660" cy="1082" r="5.5" fill="#543C84" stroke="#543C84" stroke-width="1.5"/>
<circle cx="562" cy="993" r="4.5" fill="#FFFFFF" stroke="#543C84" stroke-width="1.5"/>
<circle cx="708" cy="984" r="4.5" fill="#FFFFFF" stroke="#543C84" stroke-width="1.5"/>
<circle cx="806" cy="1000" r="4.5" fill="#FFFFFF" stroke="#543C84" stroke-width="1.5"/>
<circle cx="822" cy="1085" r="4.5" fill="#FFFFFF" stroke="#543C84" stroke-width="1.5"/>
<circle cx="566" cy="1115" r="4.5" fill="#FFFFFF" stroke="#543C84" stroke-width="1.5"/>
<circle cx="700" cy="1126" r="4.5" fill="#FFFFFF" stroke="#543C84" stroke-width="1.5"/>
<circle cx="780" cy="1122" r="4.5" fill="#FFFFFF" stroke="#543C84" stroke-width="1.5"/>
<circle cx="654" cy="1048" r="8" fill="#DED6EA" stroke="#543C84" stroke-width="2.4"/>
<text x="670" y="1053" font-size="15" text-anchor="start" fill="#543C84">z<tspan font-size="11" dy="4.6">t</tspan><tspan dy="-4.6"></tspan></text>
<text x="724" y="1053" font-size="13" text-anchor="start" fill="#543C84" font-weight="bold">K-NN</text>
<text x="60" y="1176" font-size="17.0" text-anchor="start" fill="#14231C">E</text>
<text x="71.339" y="1176" font-size="17.0" text-anchor="start" fill="#14231C"><tspan font-size="13" dy="5.5">k</tspan><tspan dy="-5.5"></tspan></text>
<text x="77.839" y="1176" font-size="17.0" text-anchor="start" fill="#14231C">  =  ∥h( g(z</text>
<text x="162.346" y="1176" font-size="17.0" text-anchor="start" fill="#14231C"><tspan font-size="13" dy="5.5">t</tspan><tspan dy="-5.5"></tspan></text>
<text x="165.96" y="1176" font-size="17.0" text-anchor="start" fill="#14231C"> , a</text>
<text x="189.59" y="1176" font-size="17.0" text-anchor="start" fill="#14231C"><tspan font-size="13" dy="5.5">k</tspan><tspan dy="-5.5"></tspan></text>
<text x="196.09" y="1176" font-size="17.0" text-anchor="start" fill="#14231C">) ) − z</text>
<text x="240.018" y="1176" font-size="17.0" text-anchor="start" fill="#14231C"><tspan font-size="13" dy="5.5">t+1</tspan><tspan dy="-5.5"></tspan></text>
<text x="258.452" y="1176" font-size="17.0" text-anchor="start" fill="#14231C">∥²</text>
<text x="362.7" y="1176" font-size="17.0" text-anchor="start" fill="#14231C">a</text>
<text x="372.152" y="1176" font-size="17.0" text-anchor="start" fill="#14231C"><tspan font-size="13" dy="5.5">0</tspan><tspan dy="-5.5"></tspan></text>
<text x="379.38" y="1176" font-size="17.0" text-anchor="start" fill="#14231C"> = a</text>
<text x="408.212" y="1176" font-size="17.0" text-anchor="start" fill="#14231C"><tspan font-size="13" dy="5.5">t</tspan><tspan dy="-5.5"></tspan></text>
<text x="498.3" y="1176" font-size="17.0" text-anchor="start" fill="#14231C">L_ctrl  =  −log softmax( −E / τ )</text>
<text x="60" y="1206" font-size="15.0" text-anchor="start" fill="#14231C">q = p(a) bounds I( a ; (z</text>
<text x="216.33" y="1206" font-size="15.0" text-anchor="start" fill="#14231C"><tspan font-size="13" dy="5.5">t</tspan><tspan dy="-5.5"></tspan></text>
<text x="219.94400000000002" y="1206" font-size="15.0" text-anchor="start" fill="#14231C"> , z</text>
<text x="239.954" y="1206" font-size="15.0" text-anchor="start" fill="#14231C"><tspan font-size="13" dy="5.5">t+1</tspan><tspan dy="-5.5"></tspan></text>
<text x="258.38800000000003" y="1206" font-size="15.0" text-anchor="start" fill="#14231C">) )  —  winnable by PLAUSIBILITY alone.</text>
<text x="618.2" y="1206" font-size="15.0" text-anchor="start" fill="#14231C">q = p(a|z</text>
<text x="676.715" y="1206" font-size="15.0" text-anchor="start" fill="#14231C"><tspan font-size="13" dy="5.5">t</tspan><tspan dy="-5.5"></tspan></text>
<text x="680.3290000000001" y="1206" font-size="15.0" text-anchor="start" fill="#14231C">) bounds I( a ; z</text>
<text x="784.5490000000001" y="1206" font-size="15.0" text-anchor="start" fill="#14231C"><tspan font-size="13" dy="5.5">t+1</tspan><tspan dy="-5.5"></tspan></text>
<text x="802.9830000000001" y="1206" font-size="15.0" text-anchor="start" fill="#14231C"> | z</text>
<text x="822.7230000000001" y="1206" font-size="15.0" text-anchor="start" fill="#14231C"><tspan font-size="13" dy="5.5">t</tspan><tspan dy="-5.5"></tspan></text>
<text x="826.3370000000001" y="1206" font-size="15.0" text-anchor="start" fill="#14231C"> ).</text>
<rect x="60" y="1230" width="264" height="58" rx="6" fill="#FFFFFF" stroke="#543C84" stroke-width="1.3" stroke-opacity="0.75"/>
<text x="192.0" y="1245" font-size="12" text-anchor="middle" fill="#6C786C">V2 measured</text>
<text x="192.0" y="1263" font-size="16" text-anchor="middle" fill="#A83024" font-weight="bold">d_action 0.699,</text>
<text x="192.0" y="1281" font-size="16" text-anchor="middle" fill="#A83024" font-weight="bold">ρ 0.448 → 0.052</text>
<rect x="332" y="1230" width="264" height="58" rx="6" fill="#FFFFFF" stroke="#543C84" stroke-width="1.3" stroke-opacity="0.75"/>
<text x="464.0" y="1245" font-size="12" text-anchor="middle" fill="#6C786C">the shortcut it took</text>
<text x="464.0" y="1263" font-size="16" text-anchor="middle" fill="#A83024" font-weight="bold">encode action identity,</text>
<text x="464.0" y="1281" font-size="16" text-anchor="middle" fill="#A83024" font-weight="bold">drop the state</text>
<rect x="604" y="1230" width="264" height="58" rx="6" fill="#FFFFFF" stroke="#543C84" stroke-width="1.3" stroke-opacity="0.75"/>
<text x="736.0" y="1245" font-size="12" text-anchor="middle" fill="#6C786C">cost of the fix</text>
<text x="736.0" y="1263" font-size="16" text-anchor="middle" fill="#14231C" font-weight="bold">one cdist on 64×64,</text>
<text x="736.0" y="1281" font-size="16" text-anchor="middle" fill="#14231C" font-weight="bold">0 new params</text>
</svg>
