<svg xmlns="http://www.w3.org/2000/svg" width="940" height="1426" viewBox="0 0 940 1426" font-family="Nimbus Sans, Liberation Sans, Helvetica, Arial, sans-serif">
<defs>
  <marker id="a" markerUnits="userSpaceOnUse" viewBox="0 0 10 10" refX="9.1" refY="5" markerWidth="11" markerHeight="11" orient="auto-start-reverse"><path d="M0.6,1.6 L9.6,5 L0.6,8.4 z" fill="#546060"/></marker>
  <marker id="ar" markerUnits="userSpaceOnUse" viewBox="0 0 10 10" refX="9.1" refY="5" markerWidth="11" markerHeight="11" orient="auto-start-reverse"><path d="M0.6,1.6 L9.6,5 L0.6,8.4 z" fill="#A83024"/></marker>
  <marker id="am" markerUnits="userSpaceOnUse" viewBox="0 0 10 10" refX="0.9" refY="5" markerWidth="11" markerHeight="11" orient="auto"><path d="M9.4,1.6 L0.4,5 L9.4,8.4 z" fill="#A83024"/></marker>
  <marker id="e0" markerUnits="userSpaceOnUse" viewBox="0 0 10 10" refX="9.1" refY="5" markerWidth="11" markerHeight="11" orient="auto-start-reverse"><path d="M0.6,1.6 L9.6,5 L0.6,8.4 z" fill="#546060"/></marker>
  <marker id="e1" markerUnits="userSpaceOnUse" viewBox="0 0 10 10" refX="9.1" refY="5" markerWidth="11" markerHeight="11" orient="auto-start-reverse"><path d="M0.6,1.6 L9.6,5 L0.6,8.4 z" fill="#18483C"/></marker>
  <marker id="e2" markerUnits="userSpaceOnUse" viewBox="0 0 10 10" refX="9.1" refY="5" markerWidth="11" markerHeight="11" orient="auto-start-reverse"><path d="M0.6,1.6 L9.6,5 L0.6,8.4 z" fill="#A83024"/></marker>
  <marker id="s3" markerUnits="userSpaceOnUse" viewBox="0 0 10 10" refX="0.9" refY="5" markerWidth="11" markerHeight="11" orient="auto"><path d="M9.4,1.6 L0.4,5 L9.4,8.4 z" fill="#A83024"/></marker>
  <marker id="e4" markerUnits="userSpaceOnUse" viewBox="0 0 10 10" refX="9.1" refY="5" markerWidth="11" markerHeight="11" orient="auto-start-reverse"><path d="M0.6,1.6 L9.6,5 L0.6,8.4 z" fill="#2E7D6F"/></marker>
  <marker id="e5" markerUnits="userSpaceOnUse" viewBox="0 0 10 10" refX="9.1" refY="5" markerWidth="11" markerHeight="11" orient="auto-start-reverse"><path d="M0.6,1.6 L9.6,5 L0.6,8.4 z" fill="#C88A1E"/></marker>
</defs>
<rect width="940" height="1426" fill="#FFFFFF"/>
<g transform="translate(0,-80)">
<circle cx="120" cy="742" r="34" fill="#DFE4E4" stroke="#546060" stroke-width="1.5"/>
<text x="112.9" y="748.65" font-size="19" text-anchor="start" fill="#14231C">o<tspan font-size="13" dy="5.5">t</tspan><tspan dy="-5.5"></tspan></text>
<circle cx="812" cy="742" r="34" fill="#DFE4E4" stroke="#546060" stroke-width="1.5"/>
<text x="797.5" y="748.65" font-size="19" text-anchor="start" fill="#14231C">o<tspan font-size="13" dy="5.5">t+1</tspan><tspan dy="-5.5"></tspan></text>
<path d="M120,706 L120,646" stroke="#546060" stroke-width="1.8" fill="none" stroke-linecap="round" marker-end="url(#e0)"/>
<path d="M812,706 L812,646" stroke="#546060" stroke-width="1.8" fill="none" stroke-linecap="round" marker-end="url(#e0)"/>
<path d="M64,644 L64,576.0 A56.0,56.0 0 0 1 176,576.0 L176,644 Z" fill="#D8F0E4" stroke="#18483C" stroke-width="1.8" stroke-linejoin="round"/>
<text x="96.1" y="620" font-size="21" text-anchor="start" fill="#14231C">Enc <tspan font-style='italic'>f</tspan></text>
<path d="M756,644 L756,576.0 A56.0,56.0 0 0 1 868,576.0 L868,644 Z" fill="#D8F0E4" stroke="#18483C" stroke-width="1.8" stroke-linejoin="round"/>
<text x="788.1" y="620" font-size="21" text-anchor="start" fill="#14231C">Enc <tspan font-style='italic'>f</tspan></text>
<path d="M120,520 L120,470" stroke="#546060" stroke-width="1.8" fill="none" stroke-linecap="round" marker-end="url(#e0)"/>
<path d="M812,520 L812,470" stroke="#546060" stroke-width="1.8" fill="none" stroke-linecap="round" marker-end="url(#e0)"/>
<rect x="78" y="420" width="84" height="44" rx="6" fill="#F7E8C8" stroke="#C88A1E" stroke-width="1.3"/>
<text x="120.0" y="448.0" font-size="16" text-anchor="middle" fill="#14231C">ReLU</text>
<rect x="770" y="420" width="84" height="44" rx="6" fill="#F7E8C8" stroke="#C88A1E" stroke-width="1.3"/>
<text x="812.0" y="448.0" font-size="16" text-anchor="middle" fill="#14231C">ReLU</text>
<path d="M120,420 L120,352" stroke="#546060" stroke-width="1.8" fill="none" stroke-linecap="round" marker-end="url(#e0)"/>
<path d="M812,420 L812,352" stroke="#546060" stroke-width="1.8" fill="none" stroke-linecap="round" marker-end="url(#e0)"/>
<rect x="109" y="190" width="22" height="22" fill="#FFFFFF" stroke="#546060" stroke-width="1.1"/>
<rect x="109" y="215" width="22" height="22" fill="#546060" stroke="#546060" stroke-width="1.1"/>
<rect x="109" y="240" width="22" height="22" fill="#546060" stroke="#546060" stroke-width="1.1"/>
<rect x="109" y="265" width="22" height="22" fill="#FFFFFF" stroke="#546060" stroke-width="1.1"/>
<rect x="109" y="290" width="22" height="22" fill="#546060" stroke="#546060" stroke-width="1.1"/>
<rect x="109" y="315" width="22" height="22" fill="#FFFFFF" stroke="#546060" stroke-width="1.1"/>
<text x="113.4" y="177" font-size="19" text-anchor="start" fill="#14231C">z<tspan font-size="13" dy="5.5">t</tspan><tspan dy="-5.5"></tspan></text>
<rect x="801" y="190" width="22" height="22" fill="#FFFFFF" stroke="#546060" stroke-width="1.1"/>
<rect x="801" y="215" width="22" height="22" fill="#546060" stroke="#546060" stroke-width="1.1"/>
<rect x="801" y="240" width="22" height="22" fill="#546060" stroke="#546060" stroke-width="1.1"/>
<rect x="801" y="265" width="22" height="22" fill="#546060" stroke="#546060" stroke-width="1.1"/>
<rect x="801" y="290" width="22" height="22" fill="#FFFFFF" stroke="#546060" stroke-width="1.1"/>
<rect x="801" y="315" width="22" height="22" fill="#FFFFFF" stroke="#546060" stroke-width="1.1"/>
<text x="798.0" y="177" font-size="19" text-anchor="start" fill="#14231C">z<tspan font-size="13" dy="5.5">t+1</tspan><tspan dy="-5.5"></tspan></text>
<rect x="701" y="190" width="22" height="22" fill="#FFFFFF" stroke="#546060" stroke-width="1.1"/>
<rect x="701" y="215" width="22" height="22" fill="#546060" stroke="#546060" stroke-width="1.1"/>
<rect x="701" y="240" width="22" height="22" fill="#FFFFFF" stroke="#546060" stroke-width="1.1"/>
<rect x="701" y="265" width="22" height="22" fill="#546060" stroke="#546060" stroke-width="1.1"/>
<rect x="701" y="290" width="22" height="22" fill="#546060" stroke="#546060" stroke-width="1.1"/>
<rect x="701" y="315" width="22" height="22" fill="#FFFFFF" stroke="#546060" stroke-width="1.1"/>
<text x="698.0" y="177" font-size="19" text-anchor="start" fill="#14231C">z<tspan font-size="13" dy="5.5">t+1</tspan><tspan dy="-5.5"></tspan></text>
<path d="M697.5,164 L702.0,158.5 L706.5,164" stroke="#14231C" stroke-width="1.6" fill="none" stroke-linecap="round" stroke-linejoin="round"/>
<path d="M737,262 L795,262" stroke="#A83024" stroke-width="1.8" stroke-linecap="round" marker-end="url(#ar)" marker-start="url(#am)"/>
<text x="762" y="240" font-size="14" text-anchor="middle" fill="#A83024">MSE (min)</text>
<path d="M232,196 L356.0,196 A66.0,66.0 0 0 1 356.0,328 L232,328 Z" fill="#DED6EA" stroke="#543C84" stroke-width="1.8" stroke-linejoin="round"/>
<text x="302.0" y="262.0" font-size="21" text-anchor="middle" fill="#14231C">Pred</text>
<text x="302.0" y="284.0" font-size="13" text-anchor="middle" fill="#6C786C">g</text>
<circle cx="318" cy="430" r="38" fill="#DFE4E4" stroke="#546060" stroke-width="1.5"/>
<text x="310.9" y="436.65" font-size="19" text-anchor="start" fill="#14231C">a<tspan font-size="13" dy="5.5">t</tspan><tspan dy="-5.5"></tspan></text>
<path d="M318,392 L318,332" stroke="#546060" stroke-width="1.8" fill="none" stroke-linecap="round" marker-end="url(#e0)"/>
<path d="M146,262 L226,262" stroke="#546060" stroke-width="1.8" fill="none" stroke-linecap="round" marker-end="url(#e0)"/>
<text x="180.6" y="248" font-size="15" text-anchor="start" fill="#6C786C">z<tspan font-size="12" dy="5.0">t</tspan><tspan dy="-5.0"></tspan></text>
<path d="M424,262 L697,262" stroke="#546060" stroke-width="1.8" fill="none" stroke-linecap="round" marker-end="url(#e0)"/>
<rect x="430" y="556" width="160" height="52" rx="6" fill="#FFFFFF" stroke="#546060" stroke-width="1.5"/>
<text x="510.0" y="588.0" font-size="17" text-anchor="middle" fill="#14231C">RDMReg</text>
<path d="M162,442 L206,442 L206,582 L426,582" stroke="#546060" stroke-width="1.8" fill="none" stroke-linejoin="round" stroke-linecap="round" marker-end="url(#e0)"/>
<path d="M770,442 L726,442 L726,582 L594,582" stroke="#546060" stroke-width="1.8" fill="none" stroke-linejoin="round" stroke-linecap="round" marker-end="url(#e0)"/>
<text x="158.0" y="872" font-size="20" text-anchor="start"><tspan fill="#18483C" font-weight="bold">(T6)&#160;</tspan><tspan fill="#14231C" font-weight="bold">PiWM-jumpy</tspan><tspan fill="#6C786C" font-weight="normal">&#160;&#8211;&#160;predict z_t+5 in ONE call, not five composed calls</tspan></text>
<path d="M880,898 L880,142 L300,142 L300,190" stroke="#C88A1E" stroke-width="1.8" fill="none" stroke-linejoin="round" stroke-linecap="round" marker-end="url(#e5)" stroke-dasharray="6,4"/>
<text x="312" y="164" font-size="15.5" text-anchor="start" fill="#C88A1E">one predictor call spans 5 frames</text>
<rect x="34" y="898" width="872" height="582" rx="10" fill="#F7E8C8" fill-opacity="0.45" stroke="#C88A1E" stroke-width="2.0"/>
<text x="54" y="930" font-size="18" text-anchor="start" fill="#C88A1E" font-weight="bold">module:  the horizon CEM plans over is the horizon the loss is written at</text>
<path d="M52,942 L888,942" stroke="#C88A1E" stroke-width="1.2" stroke-opacity="0.5"/>
<text x="52" y="976" font-size="14" text-anchor="start" fill="#6C786C" font-weight="bold">TODAY</text>
<rect x="50" y="1013" width="60" height="34" rx="17" fill="#F7E8C8" stroke="#C88A1E" stroke-width="1.8"/>
<text x="74.5" y="1036" font-size="16" text-anchor="start" fill="#14231C">z<tspan font-size="11" dy="4.6">t</tspan><tspan dy="-4.6"></tspan></text>
<path d="M110,1030 L124,1030" stroke="#C88A1E" stroke-width="1.8" fill="none" stroke-linecap="round" marker-end="url(#e5)"/>
<circle cx="152" cy="978" r="15" fill="#F7E8C8" stroke="#C88A1E" stroke-width="1.5"/>
<text x="146.2" y="982.2" font-size="12" text-anchor="start" fill="#14231C">a<tspan font-size="9" dy="3.8">1</tspan><tspan dy="-3.8"></tspan></text>
<path d="M152,993 L152,1003" stroke="#C88A1E" stroke-width="1.6" fill="none" stroke-linecap="round" marker-end="url(#e5)"/>
<rect x="128" y="1006" width="48" height="48" rx="6" fill="#FFFFFF" stroke="#C88A1E" stroke-width="1.8"/>
<text x="146.7" y="1036.0" font-size="19" text-anchor="start" fill="#14231C"><tspan font-style='italic'>g</tspan></text>
<path d="M176,1030 L190,1030" stroke="#C88A1E" stroke-width="1.8" fill="none" stroke-linecap="round" marker-end="url(#e5)"/>
<rect x="194" y="1013" width="68" height="34" rx="17" fill="#FFFFFF" stroke="#C88A1E" stroke-width="1.8"/>
<text x="220.7" y="1036" font-size="16" text-anchor="start" fill="#14231C">z<tspan font-size="12" dy="5.0">1</tspan><tspan dy="-5.0"></tspan></text>
<path d="M220.7,1025.4 L224.7,1020.2800000000001 L228.7,1025.4" stroke="#14231C" stroke-width="1.6" fill="none" stroke-linecap="round" stroke-linejoin="round"/>
<path d="M262,1030 L280,1030" stroke="#C88A1E" stroke-width="1.8" fill="none" stroke-linecap="round" marker-end="url(#e5)"/>
<rect x="214" y="1056" width="28" height="4" rx="2" fill="#A83024" fill-opacity="0.6" stroke="#A83024" stroke-width="1"/>
<circle cx="304" cy="978" r="15" fill="#F7E8C8" stroke="#C88A1E" stroke-width="1.5"/>
<text x="298.2" y="982.2" font-size="12" text-anchor="start" fill="#14231C">a<tspan font-size="9" dy="3.8">2</tspan><tspan dy="-3.8"></tspan></text>
<path d="M304,993 L304,1003" stroke="#C88A1E" stroke-width="1.6" fill="none" stroke-linecap="round" marker-end="url(#e5)"/>
<rect x="280" y="1006" width="48" height="48" rx="6" fill="#FFFFFF" stroke="#C88A1E" stroke-width="1.8"/>
<text x="298.7" y="1036.0" font-size="19" text-anchor="start" fill="#14231C"><tspan font-style='italic'>g</tspan></text>
<path d="M328,1030 L342,1030" stroke="#C88A1E" stroke-width="1.8" fill="none" stroke-linecap="round" marker-end="url(#e5)"/>
<rect x="346" y="1013" width="68" height="34" rx="17" fill="#FFFFFF" stroke="#C88A1E" stroke-width="1.8"/>
<text x="372.7" y="1036" font-size="16" text-anchor="start" fill="#14231C">z<tspan font-size="12" dy="5.0">2</tspan><tspan dy="-5.0"></tspan></text>
<path d="M372.7,1025.4 L376.7,1020.2800000000001 L380.7,1025.4" stroke="#14231C" stroke-width="1.6" fill="none" stroke-linecap="round" stroke-linejoin="round"/>
<path d="M414,1030 L432,1030" stroke="#C88A1E" stroke-width="1.8" fill="none" stroke-linecap="round" marker-end="url(#e5)"/>
<rect x="366" y="1056" width="28" height="7" rx="2" fill="#A83024" fill-opacity="0.6" stroke="#A83024" stroke-width="1"/>
<circle cx="456" cy="978" r="15" fill="#F7E8C8" stroke="#C88A1E" stroke-width="1.5"/>
<text x="450.2" y="982.2" font-size="12" text-anchor="start" fill="#14231C">a<tspan font-size="9" dy="3.8">3</tspan><tspan dy="-3.8"></tspan></text>
<path d="M456,993 L456,1003" stroke="#C88A1E" stroke-width="1.6" fill="none" stroke-linecap="round" marker-end="url(#e5)"/>
<rect x="432" y="1006" width="48" height="48" rx="6" fill="#FFFFFF" stroke="#C88A1E" stroke-width="1.8"/>
<text x="450.7" y="1036.0" font-size="19" text-anchor="start" fill="#14231C"><tspan font-style='italic'>g</tspan></text>
<path d="M480,1030 L494,1030" stroke="#C88A1E" stroke-width="1.8" fill="none" stroke-linecap="round" marker-end="url(#e5)"/>
<rect x="498" y="1013" width="68" height="34" rx="17" fill="#FFFFFF" stroke="#C88A1E" stroke-width="1.8"/>
<text x="524.7" y="1036" font-size="16" text-anchor="start" fill="#14231C">z<tspan font-size="12" dy="5.0">3</tspan><tspan dy="-5.0"></tspan></text>
<path d="M524.7,1025.4 L528.7,1020.2800000000001 L532.7,1025.4" stroke="#14231C" stroke-width="1.6" fill="none" stroke-linecap="round" stroke-linejoin="round"/>
<path d="M566,1030 L584,1030" stroke="#C88A1E" stroke-width="1.8" fill="none" stroke-linecap="round" marker-end="url(#e5)"/>
<rect x="518" y="1056" width="28" height="11" rx="2" fill="#A83024" fill-opacity="0.6" stroke="#A83024" stroke-width="1"/>
<circle cx="608" cy="978" r="15" fill="#F7E8C8" stroke="#C88A1E" stroke-width="1.5"/>
<text x="602.2" y="982.2" font-size="12" text-anchor="start" fill="#14231C">a<tspan font-size="9" dy="3.8">4</tspan><tspan dy="-3.8"></tspan></text>
<path d="M608,993 L608,1003" stroke="#C88A1E" stroke-width="1.6" fill="none" stroke-linecap="round" marker-end="url(#e5)"/>
<rect x="584" y="1006" width="48" height="48" rx="6" fill="#FFFFFF" stroke="#C88A1E" stroke-width="1.8"/>
<text x="602.7" y="1036.0" font-size="19" text-anchor="start" fill="#14231C"><tspan font-style='italic'>g</tspan></text>
<path d="M632,1030 L646,1030" stroke="#C88A1E" stroke-width="1.8" fill="none" stroke-linecap="round" marker-end="url(#e5)"/>
<rect x="650" y="1013" width="68" height="34" rx="17" fill="#FFFFFF" stroke="#C88A1E" stroke-width="1.8"/>
<text x="676.7" y="1036" font-size="16" text-anchor="start" fill="#14231C">z<tspan font-size="12" dy="5.0">4</tspan><tspan dy="-5.0"></tspan></text>
<path d="M676.7,1025.4 L680.7,1020.2800000000001 L684.7,1025.4" stroke="#14231C" stroke-width="1.6" fill="none" stroke-linecap="round" stroke-linejoin="round"/>
<path d="M718,1030 L736,1030" stroke="#C88A1E" stroke-width="1.8" fill="none" stroke-linecap="round" marker-end="url(#e5)"/>
<rect x="670" y="1056" width="28" height="16" rx="2" fill="#A83024" fill-opacity="0.6" stroke="#A83024" stroke-width="1"/>
<circle cx="760" cy="978" r="15" fill="#F7E8C8" stroke="#C88A1E" stroke-width="1.5"/>
<text x="754.2" y="982.2" font-size="12" text-anchor="start" fill="#14231C">a<tspan font-size="9" dy="3.8">5</tspan><tspan dy="-3.8"></tspan></text>
<path d="M760,993 L760,1003" stroke="#C88A1E" stroke-width="1.6" fill="none" stroke-linecap="round" marker-end="url(#e5)"/>
<rect x="736" y="1006" width="48" height="48" rx="6" fill="#FFFFFF" stroke="#C88A1E" stroke-width="1.8"/>
<text x="754.7" y="1036.0" font-size="19" text-anchor="start" fill="#14231C"><tspan font-style='italic'>g</tspan></text>
<path d="M784,1030 L798,1030" stroke="#C88A1E" stroke-width="1.8" fill="none" stroke-linecap="round" marker-end="url(#e5)"/>
<rect x="802" y="1013" width="68" height="34" rx="17" fill="#FFFFFF" stroke="#C88A1E" stroke-width="1.8"/>
<text x="828.7" y="1036" font-size="16" text-anchor="start" fill="#14231C">z<tspan font-size="12" dy="5.0">5</tspan><tspan dy="-5.0"></tspan></text>
<path d="M828.7,1025.4 L832.7,1020.2800000000001 L836.7,1025.4" stroke="#14231C" stroke-width="1.6" fill="none" stroke-linecap="round" stroke-linejoin="round"/>
<rect x="822" y="1056" width="28" height="22" rx="2" fill="#A83024" fill-opacity="0.6" stroke="#A83024" stroke-width="1"/>
<text x="836" y="1096" font-size="11.5" text-anchor="middle" fill="#A83024" font-weight="bold">error compounds</text>
<path d="M86,1047 L86,1152 L124,1152" stroke="#C88A1E" stroke-width="1.8" fill="none" stroke-linejoin="round" stroke-linecap="round" marker-end="url(#e5)"/>
<text x="52" y="1090" font-size="14" text-anchor="start" fill="#C88A1E" font-weight="bold">T6</text>
<circle cx="146" cy="1100" r="13" fill="#F7E8C8" stroke="#C88A1E" stroke-width="1.5"/>
<text x="140.7" y="1103.85" font-size="11" text-anchor="start" fill="#14231C">a<tspan font-size="8" dy="3.4">1</tspan><tspan dy="-3.4"></tspan></text>
<circle cx="180" cy="1100" r="13" fill="#F7E8C8" stroke="#C88A1E" stroke-width="1.5"/>
<text x="174.7" y="1103.85" font-size="11" text-anchor="start" fill="#14231C">a<tspan font-size="8" dy="3.4">2</tspan><tspan dy="-3.4"></tspan></text>
<circle cx="214" cy="1100" r="13" fill="#F7E8C8" stroke="#C88A1E" stroke-width="1.5"/>
<text x="208.7" y="1103.85" font-size="11" text-anchor="start" fill="#14231C">a<tspan font-size="8" dy="3.4">3</tspan><tspan dy="-3.4"></tspan></text>
<circle cx="248" cy="1100" r="13" fill="#F7E8C8" stroke="#C88A1E" stroke-width="1.5"/>
<text x="242.7" y="1103.85" font-size="11" text-anchor="start" fill="#14231C">a<tspan font-size="8" dy="3.4">4</tspan><tspan dy="-3.4"></tspan></text>
<circle cx="282" cy="1100" r="13" fill="#F7E8C8" stroke="#C88A1E" stroke-width="1.5"/>
<text x="276.7" y="1103.85" font-size="11" text-anchor="start" fill="#14231C">a<tspan font-size="8" dy="3.4">5</tspan><tspan dy="-3.4"></tspan></text>
<path d="M216,1113 L216,1124" stroke="#C88A1E" stroke-width="1.6" fill="none" stroke-linecap="round" marker-end="url(#e5)"/>
<rect x="128" y="1128" width="176" height="48" rx="6" fill="#FFFFFF" stroke="#C88A1E" stroke-width="1.8"/>
<text x="210.4" y="1152.0" font-size="20" text-anchor="start" fill="#14231C"><tspan font-style='italic'>g</tspan></text>
<text x="216.0" y="1169.0" font-size="11.5" text-anchor="middle" fill="#6C786C">one call,  k = 5</text>
<rect x="338" y="1133" width="104" height="38" rx="19" fill="#FFFFFF" stroke="#C88A1E" stroke-width="1.8"/>
<text x="377.5" y="1158" font-size="16" text-anchor="start" fill="#14231C">z<tspan font-size="12" dy="5.0">t+5</tspan><tspan dy="-5.0"></tspan></text>
<path d="M377.5,1147.4 L381.5,1142.2800000000002 L385.5,1147.4" stroke="#14231C" stroke-width="1.6" fill="none" stroke-linecap="round" stroke-linejoin="round"/>
<path d="M304,1152 L334,1152" stroke="#C88A1E" stroke-width="1.8" fill="none" stroke-linecap="round" marker-end="url(#e5)"/>
<rect x="516" y="1081" width="88" height="38" rx="19" fill="#F7E8C8" stroke="#C88A1E" stroke-width="1.8"/>
<text x="548.2" y="1106" font-size="16" text-anchor="start" fill="#14231C">z<tspan font-size="11" dy="4.6">t+5</tspan><tspan dy="-4.6"></tspan></text>
<circle cx="560" cy="1152" r="16" fill="#FFFFFF" stroke="#C88A1E" stroke-width="1.8"/>
<path d="M552,1152 L568,1152" stroke="#C88A1E" stroke-width="2.2" stroke-linecap="round"/>
<path d="M442,1152 L544,1152" stroke="#C88A1E" stroke-width="1.8" fill="none" stroke-linecap="round" marker-end="url(#e5)"/>
<path d="M560,1119 L560,1136" stroke="#C88A1E" stroke-width="1.8" fill="none" stroke-linecap="round" marker-end="url(#e5)"/>
<rect x="600" y="1128" width="110" height="48" rx="6" fill="#FFFFFF" stroke="#C88A1E" stroke-width="1.8"/>
<text x="655.0" y="1158.0" font-size="16" text-anchor="middle" fill="#14231C">∥·∥²</text>
<path d="M576,1152 L596,1152" stroke="#C88A1E" stroke-width="1.8" fill="none" stroke-linecap="round" marker-end="url(#e5)"/>
<rect x="744" y="1133" width="116" height="38" rx="19" fill="#F7E8C8" stroke="#C88A1E" stroke-width="1.8"/>
<text x="784.5" y="1158" font-size="16" text-anchor="start" fill="#14231C">L<tspan font-size="12" dy="5.0">jump</tspan><tspan dy="-5.0"></tspan></text>
<path d="M710,1152 L740,1152" stroke="#C88A1E" stroke-width="1.8" fill="none" stroke-linecap="round" marker-end="url(#e5)"/>
<rect x="60" y="1218" width="816" height="124" rx="8" fill="#FFFFFF" stroke="#C88A1E" stroke-width="1.6"/>
<text x="468.0" y="1244" font-size="17" text-anchor="middle" fill="#C88A1E" font-weight="bold">what the config pins today</text>
<rect x="108" y="1260" width="168" height="44" rx="6" fill="#F5E2E0" stroke="#A83024" stroke-width="1.8"/>
<text x="192.0" y="1288.0" font-size="15" text-anchor="middle" fill="#14231C">num_pred = 1</text>
<rect x="292" y="1260" width="168" height="44" rx="6" fill="#FFFFFF" stroke="#C88A1E" stroke-width="1.8"/>
<text x="376.0" y="1288.0" font-size="15" text-anchor="middle" fill="#14231C">num_hist = 3</text>
<rect x="476" y="1260" width="168" height="44" rx="6" fill="#FFFFFF" stroke="#C88A1E" stroke-width="1.8"/>
<text x="560.0" y="1288.0" font-size="15" text-anchor="middle" fill="#14231C">frameskip = 5</text>
<rect x="660" y="1260" width="168" height="44" rx="6" fill="#FFFFFF" stroke="#C88A1E" stroke-width="1.8"/>
<text x="744.0" y="1288.0" font-size="15" text-anchor="middle" fill="#14231C">CEM horizon = 5</text>
<text x="468" y="1328" font-size="13" text-anchor="middle" fill="#C88A1E" font-weight="bold">the training loss has never evaluated a 5-step rollout</text>
<text x="60.0" y="1376" font-size="16.0" text-anchor="start" fill="#14231C">today:   </text>
<text x="116.9" y="1376" font-size="16.0" text-anchor="start" fill="#14231C">z<tspan font-size="12" dy="5.0">t+H</tspan><tspan dy="-5.0"></tspan></text>
<path d="M116.9,1365.4 L120.9,1360.2800000000002 L124.9,1365.4" stroke="#14231C" stroke-width="1.6" fill="none" stroke-linecap="round" stroke-linejoin="round"/>
<text x="143.9" y="1376" font-size="16.0" text-anchor="start" fill="#14231C">  =  ( h </text>
<circle cx="199.2" cy="1371.2" r="2.7" fill="none" stroke="#14231C" stroke-width="1.15"/>
<text x="204.1" y="1376" font-size="16.0" text-anchor="start" fill="#14231C">  <tspan font-style='italic'>g</tspan> )<tspan font-size="12" dy="-11.4">H</tspan><tspan dy="11.4"></tspan>( z<tspan font-size="12" dy="5.0">t</tspan><tspan dy="-5.0"></tspan> ; a<tspan font-size="12" dy="5.0">1:H</tspan><tspan dy="-5.0"></tspan> )</text>
<text x="708.0" y="1376" font-size="16.0" text-anchor="start" fill="#14231C">T6:   </text>
<text x="744.5" y="1376" font-size="16.0" text-anchor="start" fill="#14231C">z<tspan font-size="12" dy="5.0">t+k</tspan><tspan dy="-5.0"></tspan></text>
<path d="M744.5,1365.4 L748.5,1360.2800000000002 L752.5,1365.4" stroke="#14231C" stroke-width="1.6" fill="none" stroke-linecap="round" stroke-linejoin="round"/>
<text x="768.8" y="1376" font-size="16.0" text-anchor="start" fill="#14231C">  =  <tspan font-style='italic'>g</tspan><tspan font-size="12" dy="5.0">k</tspan><tspan dy="-5.0"></tspan>( z<tspan font-size="12" dy="5.0">t</tspan><tspan dy="-5.0"></tspan> ; a<tspan font-size="12" dy="5.0">1:k</tspan><tspan dy="-5.0"></tspan> )</text>
<text x="60.0" y="1402" font-size="16.0" text-anchor="start" fill="#14231C">L  =  Σ<tspan font-size="12" dy="5.0">k</tspan><tspan dy="-5.0"></tspan>  ∥</text>
<text x="132.3" y="1402" font-size="16.0" text-anchor="start" fill="#14231C">z<tspan font-size="12" dy="5.0">t+k</tspan><tspan dy="-5.0"></tspan></text>
<path d="M132.3,1391.4 L136.3,1386.2800000000002 L140.3,1391.4" stroke="#14231C" stroke-width="1.6" fill="none" stroke-linecap="round" stroke-linejoin="round"/>
<text x="156.7" y="1402" font-size="16.0" text-anchor="start" fill="#14231C"> − z<tspan font-size="12" dy="5.0">t+k</tspan><tspan dy="-5.0"></tspan>∥²</text>
<text x="489.4" y="1402" font-size="14.4" text-anchor="start" fill="#14231C">k ∈ { 1 , 5 } – one head per jump, or k as a conditioning input</text>
<rect x="60" y="1416" width="198" height="44" rx="6" fill="#FFFFFF" stroke="#C88A1E" stroke-width="1.3" stroke-opacity="0.75"/>
<text x="159.0" y="1433" font-size="12" text-anchor="middle" fill="#6C786C">num_pred today</text>
<text x="159.0" y="1452" font-size="16" text-anchor="middle" fill="#A83024" font-weight="bold">1</text>
<rect x="266" y="1416" width="198" height="44" rx="6" fill="#FFFFFF" stroke="#C88A1E" stroke-width="1.3" stroke-opacity="0.75"/>
<text x="365.0" y="1433" font-size="12" text-anchor="middle" fill="#6C786C">CEM horizon</text>
<text x="365.0" y="1452" font-size="16" text-anchor="middle" fill="#14231C" font-weight="bold">5</text>
<rect x="472" y="1416" width="198" height="44" rx="6" fill="#FFFFFF" stroke="#C88A1E" stroke-width="1.3" stroke-opacity="0.75"/>
<text x="571.0" y="1433" font-size="12" text-anchor="middle" fill="#6C786C">frameskip</text>
<text x="571.0" y="1452" font-size="16" text-anchor="middle" fill="#14231C" font-weight="bold">5  (act dim 10)</text>
<rect x="678" y="1416" width="198" height="44" rx="6" fill="#FFFFFF" stroke="#C88A1E" stroke-width="1.3" stroke-opacity="0.75"/>
<text x="777.0" y="1433" font-size="12" text-anchor="middle" fill="#6C786C">what compounds</text>
<text x="777.0" y="1452" font-size="16" text-anchor="middle" fill="#A83024" font-weight="bold">5 × ( h · g )</text>
</g>
</svg>
